<svg width="50" height="47" viewBox="0 0 50 47" fill="none" xmlns="http://www.w3.org/2000/svg">
<path d="M0 5C0 2.23858 2.23858 0 5 0H44.3549C47.1163 0 49.3549 2.23858 49.3549 5V41.1707C49.3549 43.9321 47.1163 46.1707 44.3549 46.1707H5C2.23858 46.1707 0 43.9321 0 41.1707V5Z" fill="#81D7B7"/>
<path d="M21.2553 6H26.9784V32.4906C24.0425 33.0484 21.887 33.2713 19.5461 33.2713C12.5595 33.271 8.91754 30.1128 8.91754 24.0551C8.91754 18.2205 12.7826 14.4301 18.7654 14.4301C19.6945 14.4301 20.4005 14.5045 21.2553 14.7273V6ZM21.2553 19.3342C20.5865 19.1113 20.0289 19.0372 19.3229 19.0372C16.4245 19.0372 14.7519 20.8209 14.7519 23.9424C14.7519 26.9899 16.3501 28.662 19.286 28.662C19.9174 28.662 20.4377 28.6248 21.2553 28.5138V19.3342Z" fill="#00794C"/>
<path d="M36.0822 14.8378V28.1047C36.0822 32.6757 35.7475 34.8682 34.7443 36.7634C33.8151 38.5847 32.5888 39.7364 30.0619 41L24.7477 38.4732C27.2748 37.2837 28.5009 36.2438 29.2813 34.645C30.0988 33.0102 30.3594 31.115 30.3594 26.1351V14.8378H36.0822ZM30.3591 6.03035H36.0822V11.9021H30.3591V6.03035Z" fill="#00794C"/>
</svg>
