<svg width="50" height="47" viewBox="0 0 50 47" fill="none" xmlns="http://www.w3.org/2000/svg">
<path d="M0 5C0 2.23858 2.23858 0 5 0H44.3549C47.1163 0 49.3549 2.23858 49.3549 5V41.1707C49.3549 43.9321 47.1163 46.1707 44.3549 46.1707H5C2.23858 46.1707 0 43.9321 0 41.1707V5Z" fill="#C3F2FF"/>
<path d="M42.125 20.2461C40.9492 19.5625 39.3906 19.4805 38.0781 19.8633C37.9141 18.4414 36.9844 17.2109 35.8906 16.3359L35.4531 15.9805L35.0703 16.418C34.332 17.2656 34.1133 18.6875 34.2227 19.7813C34.3047 20.5742 34.5508 21.3945 35.043 22.0508C34.6602 22.2695 34.25 22.5703 33.8672 22.707C33.1016 22.9805 32.2539 23.2539 31.4336 23.2539H29.6016V19.3984H26.0469V12.5625H21.9453V15.8438H15.1094V19.3984H11.5547V23.2266H8.4922L8.43751 23.6367C8.30079 25.3867 8.51954 27.082 9.25783 28.6953L9.55861 29.2969L9.58595 29.3516C11.7461 33.0156 15.5195 34.5469 19.6484 34.5469C27.6328 34.5469 34.2227 30.9648 37.2305 23.4453C39.2539 23.5547 41.332 22.9531 42.3164 21.0117L42.5625 20.5195L42.125 20.2461ZM15.6563 16.6641H18.3906V19.6719H15.6563V16.6641ZM19.2383 28.75C19.2383 29.2148 18.8555 29.5977 18.3906 29.5977C17.9258 29.5977 17.543 29.2148 17.543 28.75C17.543 28.2852 17.9258 27.9023 18.3906 27.9023C18.8555 27.9297 19.2383 28.2852 19.2383 28.75ZM15.6563 20.2188H18.3906V23.2266H15.6563V20.2188ZM12.1016 20.2188H15.1094V23.2266H12.1016V20.2188ZM19.6758 33.9453C15.3555 33.918 13.0313 32.4688 11.1172 30.5547C11.6914 30.582 12.2383 30.6094 12.7305 30.6094C13.168 30.6094 13.6055 30.6094 14.0156 30.582C15.082 30.5273 16.0117 30.3906 16.7774 30.1719C17.4063 31.6211 18.5547 32.9609 20.6055 33.9453H19.6758ZM21.9453 23.2266H18.9375V20.2188H21.9453V23.2266ZM21.9453 19.6719H18.9375V16.6641H21.9453V19.6719ZM25.5 23.2266H22.4922V20.2188H25.5V23.2266ZM25.5 19.6719H22.4922V16.6641H25.5V19.6719ZM25.5 16.1172H22.4922V13.1094H25.5V16.1172ZM29.0547 23.2266H26.0469V20.2188H29.0547V23.2266ZM18.6094 28.2031C18.5547 28.1758 18.4727 28.1484 18.3906 28.1484C18.0625 28.1484 17.7891 28.4219 17.7891 28.75C17.7891 29.0781 18.0625 29.3516 18.3906 29.3516C18.7188 29.3516 18.9922 29.0781 18.9922 28.75C18.9922 28.668 18.9649 28.5859 18.9375 28.5312C18.8828 28.6133 18.8281 28.668 18.7188 28.668C18.582 28.668 18.4727 28.5586 18.4727 28.4219C18.5 28.3125 18.5547 28.2305 18.6094 28.2031Z" fill="#019BC6"/>
</svg>
