<svg width="50" height="47" viewBox="0 0 50 47" fill="none" xmlns="http://www.w3.org/2000/svg">
<path d="M0 5C0 2.23858 2.23858 0 5 0H44.3549C47.1163 0 49.3549 2.23858 49.3549 5V41.1707C49.3549 43.9321 47.1163 46.1707 44.3549 46.1707H5C2.23858 46.1707 0 43.9321 0 41.1707V5Z" fill="#58A5AF"/>
<path fill-rule="evenodd" clip-rule="evenodd" d="M12.7695 24.7852C12.8242 25.7423 13.7812 25.3048 14.2187 25.004C14.6289 24.7032 14.7656 24.9493 14.793 24.3751C14.8203 23.9923 14.8476 23.6368 14.8476 23.254C14.2187 23.1993 13.5351 23.336 13.0156 23.7188C12.7695 23.9102 12.25 24.5392 12.7695 24.7852Z" fill="#F6D2A2"/>
<path d="M13.2891 25.4687C13.0977 25.4687 12.7422 25.3867 12.6875 24.8398C12.5235 24.7305 12.4688 24.5937 12.4688 24.5117C12.4414 24.1836 12.7969 23.8008 12.9883 23.6641C13.4258 23.3359 14 23.1719 14.6016 23.1719H14.9571V23.2539C14.9844 23.5547 14.9571 23.8555 14.9297 24.1289C14.9297 24.2109 14.9297 24.293 14.9024 24.375C14.875 24.7852 14.793 24.8398 14.6016 24.9219C14.5196 24.9492 14.4375 24.9766 14.3008 25.0859C14.1641 25.168 13.6992 25.4687 13.2891 25.4687ZM14.6016 23.3359C14.0274 23.3359 13.5078 23.5 13.0977 23.8008C12.9063 23.9375 12.6328 24.2656 12.6602 24.4844C12.6602 24.5664 12.7149 24.6484 12.8242 24.7031L12.8789 24.7305V24.7852C12.9063 25.2227 13.125 25.2773 13.2891 25.2773C13.5625 25.2773 13.9453 25.0859 14.1914 24.9219C14.3555 24.8125 14.4649 24.7852 14.5469 24.7578C14.6836 24.7031 14.711 24.7031 14.7383 24.375C14.7383 24.293 14.7383 24.2109 14.7657 24.1289C14.793 23.8828 14.793 23.6094 14.793 23.3633C14.711 23.3359 14.6563 23.3359 14.6016 23.3359Z" fill="black"/>
<path fill-rule="evenodd" clip-rule="evenodd" d="M12.7695 24.7852C12.9062 24.7305 13.0703 24.7031 13.1523 24.5664L12.7695 24.7852Z" fill="#C6B198"/>
<path d="M12.7695 24.8673C12.7422 24.8673 12.6875 24.8399 12.6875 24.8126C12.6601 24.7579 12.6875 24.7032 12.7422 24.7032C12.7695 24.7032 12.7969 24.6759 12.7969 24.6759C12.9062 24.6212 13.0156 24.5938 13.0703 24.5118C13.0976 24.4845 13.1523 24.4571 13.207 24.4845C13.2344 24.5118 13.2617 24.5665 13.2344 24.6212C13.125 24.7579 12.9883 24.8126 12.8789 24.8399L12.8242 24.8673H12.7695Z" fill="black"/>
<path fill-rule="evenodd" clip-rule="evenodd" d="M15.0117 13.2188C11.2929 12.1797 14.0547 7.44927 17.0351 9.39067L15.0117 13.2188Z" fill="#6AD7E5"/>
<path d="M15.0664 13.3281L14.9843 13.3008C13.0703 12.7539 13.0976 11.3867 13.1523 10.9766C13.289 9.9375 14.2734 8.84375 15.5859 8.84375C16.1054 8.84375 16.5976 9.00781 17.0898 9.33594L17.1718 9.39062L15.0664 13.3281ZM15.5859 9.03516C14.3554 9.03516 13.4531 10.0469 13.3164 11.0039C13.1797 11.9883 13.7812 12.7539 14.957 13.1094L16.8984 9.41797C16.4883 9.17188 16.0508 9.03516 15.5859 9.03516Z" fill="black"/>
<path fill-rule="evenodd" clip-rule="evenodd" d="M31.5 9.03526C34.4258 6.98448 37.1055 11.6329 33.6875 12.8087L31.5 9.03526Z" fill="#6AD7E5"/>
<path d="M33.6602 12.918L31.3906 9.00781L31.4727 8.95312C31.9922 8.59766 32.5117 8.40625 33.0312 8.40625C34.2891 8.40625 35.1914 9.44531 35.3828 10.457C35.4648 10.8672 35.5469 12.2617 33.7422 12.8633L33.6602 12.918ZM31.6367 9.08984L33.7422 12.7266C34.8086 12.3438 35.3555 11.5234 35.1914 10.5391C35.0273 9.60938 34.1797 8.65234 33.0312 8.65234C32.5664 8.625 32.1016 8.76172 31.6367 9.08984Z" fill="black"/>
<path fill-rule="evenodd" clip-rule="evenodd" d="M32.1562 36.707C32.8945 37.1719 34.2617 38.5664 33.1406 39.25C32.0742 40.2344 31.4727 38.1562 30.5156 37.8828C30.9258 37.3359 31.4453 36.8164 32.1562 36.707Z" fill="#F6D2A2"/>
<path d="M32.5664 39.6055C32.1289 39.6055 31.7461 39.168 31.418 38.7578C31.1172 38.4297 30.8164 38.0742 30.4883 37.9648L30.3516 37.9375L30.4336 37.8281C30.7617 37.3633 31.3086 36.7617 32.1289 36.625H32.1562L32.1836 36.6523C32.6484 36.9531 33.6602 37.8008 33.6328 38.5937C33.6328 38.8945 33.4687 39.1406 33.168 39.332C32.9766 39.5234 32.7852 39.6055 32.5664 39.6055ZM30.6523 37.8281C30.9805 37.9648 31.2539 38.3203 31.5273 38.6211C31.8555 39.0313 32.1836 39.3867 32.5391 39.3867C32.7031 39.3867 32.8672 39.3047 33.0312 39.1406H33.0586C33.3047 38.9766 33.4414 38.7852 33.4414 38.5391C33.4414 37.9102 32.6484 37.1172 32.1016 36.7617C31.6094 36.8984 31.1172 37.2266 30.6523 37.8281ZM33.1406 39.332C33.1133 39.332 33.0859 39.3047 33.0586 39.2773C33.0039 39.168 32.9492 39.0313 32.9219 38.9219C32.8398 38.7031 32.7578 38.4844 32.5937 38.3203C32.5664 38.293 32.5664 38.2383 32.5937 38.1836C32.6211 38.1562 32.6758 38.1562 32.7305 38.1836C32.9219 38.375 33.0312 38.6211 33.1133 38.8672L33.25 39.1953C33.2773 39.25 33.25 39.3047 33.2227 39.332H33.1406Z" fill="black"/>
<path fill-rule="evenodd" clip-rule="evenodd" d="M18.8125 38.2929C17.9375 38.4296 17.4453 39.2226 16.707 39.6328C16.0234 40.0429 15.75 39.496 15.6953 39.3867C15.5859 39.332 15.5859 39.4414 15.4219 39.2773C14.793 38.2656 16.0781 37.5273 16.7617 37.0351C17.7188 36.8164 18.3203 37.6367 18.8125 38.2929Z" fill="#F6D2A2"/>
<path d="M16.2422 39.8516C15.8867 39.8516 15.6953 39.5508 15.6406 39.4414H15.6133C15.5312 39.4414 15.4766 39.4141 15.3672 39.3047V39.2773C14.7656 38.3203 15.8047 37.582 16.4883 37.0898L16.7344 36.9258H16.7891C16.8984 36.8984 16.9805 36.8984 17.0898 36.8984C17.9102 36.8984 18.4297 37.6094 18.8672 38.1836L19.0039 38.375L18.8398 38.4023C18.3203 38.4844 17.9375 38.8125 17.5547 39.1406C17.3086 39.3594 17.0625 39.5508 16.7891 39.7148C16.5703 39.7969 16.4062 39.8516 16.2422 39.8516ZM15.6406 39.2773C15.668 39.2773 15.6953 39.2773 15.75 39.3047H15.7773L15.8047 39.332C15.8594 39.4141 15.9961 39.6602 16.2695 39.6602C16.4062 39.6602 16.543 39.6055 16.6797 39.5234C16.9531 39.3867 17.1992 39.168 17.418 38.9766C17.7734 38.6758 18.1562 38.3477 18.6484 38.2109C18.2383 37.6641 17.7461 37.0625 17.0625 37.0625C16.9805 37.0625 16.8984 37.0625 16.8164 37.0898L16.5977 37.2539C15.8867 37.7461 15.0117 38.375 15.5312 39.1953C15.5586 39.25 15.5859 39.2773 15.6406 39.2773ZM15.6953 39.4688C15.6406 39.4688 15.5859 39.4141 15.6133 39.3594C15.6406 39.0859 15.7773 38.8945 15.9141 38.6758C15.9961 38.5664 16.0508 38.457 16.1055 38.3477C16.1328 38.293 16.1875 38.293 16.2148 38.293C16.2695 38.3203 16.2695 38.375 16.2695 38.4023C16.2148 38.5391 16.1328 38.6484 16.0508 38.7578C15.9141 38.9492 15.8047 39.1133 15.7773 39.332C15.7773 39.4414 15.75 39.4688 15.6953 39.4688Z" fill="black"/>
<path fill-rule="evenodd" clip-rule="evenodd" d="M15.1758 11.9335C14.6836 11.6874 14.3281 11.332 14.6289 10.7578C14.9023 10.2382 15.4219 10.2929 15.914 10.539L15.1758 11.9335ZM32.9219 11.4413C33.414 11.1953 33.7695 10.8398 33.4687 10.2656C33.1953 9.74603 32.6758 9.80072 32.1836 10.0468L32.9219 11.4413Z" fill="black"/>
<path fill-rule="evenodd" clip-rule="evenodd" d="M36.2852 24.6485C36.2305 25.6056 35.2734 25.1681 34.8359 24.8673C34.4258 24.5665 34.2891 24.8126 34.2617 24.2384C34.2344 23.8556 34.207 23.5001 34.207 23.1173C34.8359 23.0626 35.5195 23.1993 36.0391 23.5821C36.3125 23.8009 36.8047 24.4024 36.2852 24.6485Z" fill="#F6D2A2"/>
<path d="M35.7929 25.332C35.3828 25.332 34.9179 25.0313 34.7812 24.9492C34.6445 24.8672 34.5625 24.8125 34.4804 24.7852C34.2617 24.7031 34.207 24.6484 34.1797 24.2383C34.1797 24.1562 34.1797 24.0742 34.1523 23.9922C34.125 23.7188 34.0976 23.418 34.125 23.1172V23.0352H34.4804C35.082 23.0352 35.6562 23.1992 36.0937 23.5273C36.2851 23.6641 36.6406 24.0469 36.6133 24.375C36.6133 24.4844 36.5586 24.6211 36.3945 24.7031C36.3398 25.25 35.9843 25.332 35.7929 25.332ZM34.289 23.2266C34.289 23.4727 34.289 23.7461 34.3164 23.9922C34.3164 24.0742 34.3164 24.1562 34.3437 24.2383C34.3711 24.5664 34.3984 24.5664 34.5351 24.6211C34.6172 24.6484 34.7265 24.7031 34.8906 24.7852C35.1367 24.9492 35.5195 25.1406 35.7929 25.1406C35.957 25.1406 36.1758 25.0859 36.2031 24.6484V24.5938L36.2578 24.5664C36.3672 24.5117 36.4218 24.457 36.4218 24.3477C36.4492 24.1289 36.1758 23.8008 35.9843 23.6641C35.5742 23.3633 35.0273 23.1992 34.4804 23.1992C34.4258 23.2266 34.3711 23.2266 34.289 23.2266Z" fill="black"/>
<path fill-rule="evenodd" clip-rule="evenodd" d="M36.2852 24.6484C36.1484 24.5937 35.9844 24.5664 35.9023 24.4297L36.2852 24.6484Z" fill="#C6B198"/>
<path d="M36.2852 24.7577H36.2578L36.2031 24.7304C36.0664 24.6757 35.9297 24.6483 35.8477 24.5116C35.8203 24.4843 35.8203 24.4022 35.875 24.3749C35.9024 24.3476 35.9844 24.3476 36.0117 24.4022C36.0664 24.4843 36.1758 24.5116 36.2852 24.5663C36.3125 24.5663 36.3399 24.5936 36.3399 24.5936C36.3945 24.621 36.4219 24.6757 36.3945 24.703C36.3672 24.7304 36.3125 24.7577 36.2852 24.7577Z" fill="black"/>
<path fill-rule="evenodd" clip-rule="evenodd" d="M24.1719 7.09375C27.8906 7.09375 31.3633 7.61328 33.1953 11.1953C34.836 15.1875 34.2344 19.5078 34.5078 23.7461C34.7266 27.3828 35.1914 31.5664 33.5235 34.9297C31.7461 38.457 27.3164 39.3594 23.6797 39.2227C20.8086 39.1133 17.3633 38.1836 15.7227 35.5586C13.836 32.4961 14.711 27.9297 14.8477 24.5117C15.0117 20.4648 13.7539 16.3906 15.0938 12.4531C16.4336 8.32422 20.1524 7.39453 24.1719 7.09375Z" fill="#6AD7E5"/>
<path d="M24.3086 39.332H23.625C22.5039 39.3047 20.8086 39.1133 19.1407 38.4297C17.5274 37.7734 16.3516 36.8438 15.586 35.6133C14.0547 33.125 14.3282 29.707 14.5742 26.6719C14.6289 25.9063 14.6836 25.1953 14.711 24.5117C14.7657 23.0899 14.6563 21.6133 14.5196 20.2188C14.3008 17.6484 14.0821 14.9961 14.9297 12.4258C15.586 10.5117 16.7617 9.14454 18.5391 8.26954C19.9336 7.58595 21.6563 7.20314 24.1172 7.01173C27.7813 6.98439 31.418 7.50392 33.25 11.1406C34.4532 14.0664 34.4532 17.2109 34.4805 20.2461C34.4805 21.3945 34.4805 22.5703 34.5625 23.7188C34.5899 24.0742 34.6172 24.4297 34.6172 24.7852C34.836 28.1211 35.0821 31.8945 33.5508 34.957C32.7852 36.5156 31.4453 37.6641 29.6133 38.4024C28.1367 39.0039 26.2774 39.332 24.3086 39.332ZM24.1719 7.17579C20.3164 7.47657 16.543 8.32423 15.1485 12.4805C14.3008 15.0234 14.5196 17.6484 14.7383 20.1914C14.8477 21.6133 14.9844 23.0625 14.9297 24.5117C14.9024 25.1953 14.8477 25.9063 14.793 26.6719C14.5469 29.6797 14.2735 33.0703 15.7774 35.5039C16.4063 36.5156 18.4297 38.9219 23.6524 39.1133H24.336C30.3789 39.1133 32.6211 36.4336 33.4414 34.8477C34.9453 31.8399 34.6992 28.0664 34.5078 24.7578C34.4805 24.4024 34.4532 24.0469 34.4532 23.6914C34.3985 22.543 34.3711 21.3672 34.3711 20.2188C34.3438 17.2109 34.3438 14.0664 33.168 11.168C32.3477 9.5547 31.1172 8.46095 29.4219 7.83204C27.6719 7.25782 25.7032 7.17579 24.1719 7.17579Z" fill="black"/>
<path fill-rule="evenodd" clip-rule="evenodd" d="M24.8281 12.0704C25.4844 15.9532 31.8281 14.9141 30.9258 11.004C30.1055 7.50395 24.6094 8.48833 24.8281 12.0704Z" fill="white"/>
<path d="M27.836 14.6133C26.6055 14.6133 25.0469 13.957 24.7188 12.0977C24.6641 11.2227 24.9375 10.4297 25.5117 9.82812C26.1406 9.14453 27.0977 8.76172 28.082 8.76172C29.2305 8.76172 30.5977 9.36328 30.9805 11.0312C31.1992 11.9609 31.0352 12.7812 30.5156 13.4375C29.9414 14.1484 28.9297 14.6133 27.836 14.6133ZM24.9102 12.0703C25.0469 12.8359 25.4024 13.4375 25.9766 13.875C26.4688 14.2578 27.1524 14.4492 27.836 14.4492C28.8477 14.4492 29.832 14.0117 30.3789 13.3281C30.8711 12.7266 31.0078 11.9336 30.8164 11.0586C30.461 9.5 29.1758 8.95312 28.082 8.95312C27.1524 8.95312 26.25 9.33594 25.6485 9.96484C25.1289 10.5117 24.8555 11.25 24.9102 12.0703Z" fill="black"/>
<path fill-rule="evenodd" clip-rule="evenodd" d="M17.2539 12.6993C18.1289 16.0626 23.5156 15.2149 23.3242 11.8243C23.0781 7.77741 16.4062 8.54304 17.2539 12.6993Z" fill="white"/>
<path d="M20.125 14.9414C18.9492 14.9414 17.582 14.3672 17.1445 12.7266C16.9531 11.7695 17.1445 10.8945 17.6914 10.2383C18.293 9.5 19.2773 9.0625 20.3438 9.0625C21.7656 9.0625 23.2695 9.91016 23.3789 11.8242C23.4336 12.6172 23.1875 13.3281 22.6406 13.9023C22.0664 14.5312 21.1094 14.9414 20.125 14.9414ZM20.3438 9.25391C19.332 9.25391 18.4023 9.66406 17.8281 10.3477C17.3086 10.9766 17.1445 11.7695 17.3359 12.6719C17.7188 14.2031 19.0313 14.75 20.125 14.75C21.0547 14.75 21.957 14.3945 22.5313 13.7656C23.0234 13.2461 23.2695 12.5625 23.2148 11.8242C23.1602 10.6484 22.3672 9.25391 20.3438 9.25391Z" fill="black"/>
<path fill-rule="evenodd" clip-rule="evenodd" d="M25.5938 16.7187C25.5938 17.2109 25.7031 17.7852 25.6211 18.332C25.4844 18.5781 25.2383 18.6055 25.0195 18.6875C24.7188 18.6328 24.4727 18.4414 24.3359 18.168C24.2539 17.5664 24.3633 16.9648 24.3906 16.3633L25.5938 16.7187Z" fill="white"/>
<path d="M25.0196 18.7969C24.6641 18.7422 24.3906 18.5234 24.2539 18.2227C24.1992 17.7852 24.2266 17.375 24.2539 16.9648C24.2813 16.7734 24.2813 16.582 24.2813 16.3906V16.2812L25.6758 16.7188V16.7734C25.6758 16.9375 25.7031 17.1016 25.7031 17.293C25.7305 17.6484 25.7578 18.0313 25.7031 18.3867V18.4141C25.5938 18.6328 25.4024 18.6875 25.211 18.7695C25.1563 18.7422 25.1016 18.7695 25.0196 18.7969ZM24.418 18.1406C24.5274 18.3867 24.7461 18.5508 24.9922 18.6055C25.0469 18.5781 25.1016 18.5781 25.1289 18.5508C25.293 18.4961 25.4297 18.4414 25.5117 18.3047C25.5664 17.9766 25.5391 17.6211 25.5117 17.2656C25.5117 17.1016 25.4844 16.9375 25.4844 16.8008L24.4453 16.4727C24.4453 16.6367 24.418 16.8008 24.418 16.9375C24.3906 17.375 24.3633 17.7578 24.418 18.1406Z" fill="black"/>
<path fill-rule="evenodd" clip-rule="evenodd" d="M19.6602 12.1523C19.6602 12.6992 19.25 13.1367 18.7578 13.1367C18.2656 13.1367 17.8555 12.6992 17.8555 12.1523C17.8555 11.6055 18.2656 11.168 18.7578 11.168C19.25 11.168 19.6602 11.6055 19.6602 12.1523Z" fill="black"/>
<path fill-rule="evenodd" clip-rule="evenodd" d="M19.3594 12.3711C19.3594 12.5078 19.25 12.6172 19.1406 12.6172C19.0313 12.6172 18.9219 12.5078 18.9219 12.3711C18.9219 12.2344 19.0313 12.125 19.1406 12.125C19.2773 12.125 19.3594 12.2344 19.3594 12.3711Z" fill="white"/>
<path fill-rule="evenodd" clip-rule="evenodd" d="M27.2891 11.9063C27.2891 12.4531 26.8789 12.8906 26.3867 12.8906C25.8945 12.8906 25.4844 12.4531 25.4844 11.9063C25.4844 11.3594 25.8945 10.9219 26.3867 10.9219C26.8789 10.9219 27.2891 11.3594 27.2891 11.9063Z" fill="black"/>
<path fill-rule="evenodd" clip-rule="evenodd" d="M27.0157 12.125C27.0157 12.2617 26.9336 12.3711 26.7969 12.3711C26.6875 12.3711 26.5782 12.2617 26.5782 12.125C26.5782 11.9883 26.6602 11.8789 26.7969 11.8789C26.9063 11.8789 27.0157 11.9883 27.0157 12.125ZM22.9688 16.6641C22.5586 17.6211 23.1875 19.5625 24.2813 18.1406C24.1992 17.5391 24.3086 16.9375 24.336 16.3359L22.9688 16.6641Z" fill="white"/>
<path d="M23.543 18.7422C23.3516 18.7422 23.1602 18.6328 23.0234 18.4141C22.7227 17.9766 22.668 17.1563 22.8867 16.6367L22.9141 16.582L24.418 16.1992V16.3086L24.3906 16.9102C24.3633 17.3203 24.3359 17.7031 24.3906 18.1133V18.1406L24.3633 18.168C24.0898 18.5508 23.8164 18.7422 23.543 18.7422ZM23.0508 16.7461C22.8867 17.2109 22.9414 17.9492 23.1875 18.3047C23.2969 18.4688 23.4062 18.5508 23.543 18.5508C23.7344 18.5508 23.9531 18.3867 24.1719 18.1133C24.1172 17.7031 24.1445 17.293 24.1992 16.9102L24.2266 16.4453L23.0508 16.7461Z" fill="black"/>
<path fill-rule="evenodd" clip-rule="evenodd" d="M23.1055 14.8047C22.3672 14.8594 21.7656 15.7617 22.1484 16.4453C22.668 17.375 23.7891 16.3633 24.5 16.4453C25.3203 16.4727 25.9766 17.3203 26.6328 16.6094C27.3711 15.8164 26.3047 15.0508 25.5117 14.6953L23.1055 14.8047Z" fill="#F6D2A2"/>
<path d="M26.0586 16.9922C25.8125 16.9922 25.5664 16.8828 25.3203 16.7734C25.0742 16.6641 24.8008 16.5547 24.5 16.5547H24.418C24.1992 16.5547 23.9531 16.6367 23.6797 16.7461C23.3789 16.8555 23.0781 16.9375 22.8047 16.9375C22.4766 16.9375 22.2305 16.8008 22.0664 16.5C21.875 16.1719 21.9023 15.7891 22.0937 15.4336C22.3125 15.0234 22.6953 14.7773 23.1055 14.7227L25.5391 14.6133H25.5664C26.168 14.8594 26.8516 15.3242 26.9883 15.8711C27.043 16.1445 26.9609 16.418 26.7422 16.6641C26.5234 16.9102 26.3047 16.9922 26.0586 16.9922ZM24.5273 16.3906C24.8281 16.3906 25.1289 16.5273 25.4023 16.6367C25.6484 16.7461 25.8672 16.8281 26.0859 16.8281C26.2773 16.8281 26.4414 16.7461 26.6055 16.582C26.7969 16.3906 26.8516 16.1719 26.8242 15.9531C26.7148 15.4883 26.0586 15.0508 25.5391 14.832L23.1602 14.9414C22.8047 14.9688 22.4766 15.2148 22.2852 15.543C22.1211 15.8438 22.1211 16.1719 22.2578 16.4453C22.3945 16.6914 22.5586 16.8008 22.832 16.8008C23.0781 16.8008 23.3516 16.6914 23.625 16.6094C23.9258 16.5 24.1719 16.418 24.4453 16.418C24.4453 16.3633 24.4727 16.3633 24.5273 16.3906Z" fill="#231F20"/>
<path fill-rule="evenodd" clip-rule="evenodd" d="M23.0234 14.7773C22.9687 13.4921 25.4297 13.3281 25.7031 14.3945C26.0039 15.4882 23.1328 15.7343 23.0234 14.7773Z" fill="black"/>
</svg>
