<svg width="50" height="47" viewBox="0 0 50 47" fill="none" xmlns="http://www.w3.org/2000/svg">
<path d="M0 5.17066C0 2.40923 2.23858 0.170654 5 0.170654H44.3549C47.1163 0.170654 49.3549 2.40923 49.3549 5.17065V41.3413C49.3549 44.1027 47.1163 46.3413 44.3549 46.3413H5C2.23858 46.3413 0 44.1028 0 41.3413V5.17066Z" fill="#FFD5C7"/>
<path d="M41.8774 20.8242C41.8161 20.1806 41.6935 19.4452 41.5096 18.6177C41.3257 17.7903 40.958 16.9323 40.5289 15.9823C40.0692 15.0629 39.4869 14.0823 38.7207 13.1935C38.4142 12.8258 38.0771 12.4887 37.7399 12.121C38.2916 10.0065 37.0963 8.1371 37.0963 8.1371C35.0429 8.01452 33.7557 8.78065 33.296 9.11774C33.2347 9.0871 33.1121 9.05645 33.0508 9.02581C32.7137 8.90323 32.3459 8.75 31.9781 8.62742C31.6103 8.53548 31.2426 8.38226 30.8748 8.32097C30.507 8.22903 30.1086 8.1371 29.6795 8.07581C29.6182 8.07581 29.5569 8.04516 29.465 8.04516C28.6068 5.22581 26.0324 4 26.0324 4C23.0902 5.9 22.5385 8.4129 22.5385 8.4129C22.5385 8.4129 22.5385 8.47419 22.5079 8.53548C22.324 8.56613 22.2014 8.62742 22.0482 8.65806C21.8336 8.71936 21.6191 8.78065 21.4046 8.90323L20.7609 9.17903C20.3319 9.39355 19.9028 9.57742 19.4737 9.82258C19.0753 10.0677 18.6769 10.2823 18.2785 10.5581C18.2172 10.5274 18.1865 10.4968 18.1865 10.4968C14.2329 8.96452 10.7391 10.8032 10.7391 10.8032C10.4326 15.0323 12.3327 17.6371 12.7005 18.1274C12.6086 18.4032 12.5166 18.6484 12.4247 18.8935C12.1182 19.8435 11.9037 20.8242 11.7811 21.8355C11.7504 21.9581 11.7504 22.1419 11.7198 22.2645C8.07268 24.0726 7 27.7806 7 27.7806C10.0342 31.2742 13.5893 31.4887 13.5893 31.4887C14.0184 32.2855 14.5701 33.0823 15.1524 33.7871C15.3975 34.0935 15.6734 34.3694 15.9186 34.6758C14.8152 37.8323 16.1025 40.4984 16.1025 40.4984C19.5044 40.621 21.7417 39.0274 22.2014 38.629C22.5385 38.721 22.8757 38.8435 23.2128 38.9355C24.2548 39.2113 25.3275 39.3645 26.3695 39.3952H27.7487C29.3424 41.6935 32.162 42 32.162 42C34.1541 39.8855 34.2767 37.8323 34.2767 37.3419V37.1581C34.6751 36.8516 35.0736 36.5452 35.5026 36.2081C36.2995 35.5032 36.9737 34.6452 37.5867 33.7871C37.648 33.7258 37.6786 33.6032 37.7706 33.5419C40.0385 33.6645 41.6016 32.1323 41.6016 32.1323C41.2338 29.7726 39.8853 28.6387 39.6095 28.4242L39.5788 28.3935L39.5482 28.3629L39.5175 28.3323C39.5175 28.2097 39.5482 28.0565 39.5482 27.9032C39.5788 27.6274 39.5788 27.3823 39.5788 27.1371V26.1258C39.5788 26.0645 39.5788 26.0032 39.5482 25.9113L39.5175 25.6968L39.4869 25.4823C39.4562 25.2065 39.3949 24.9613 39.3643 24.7161C39.1191 23.7048 38.7207 22.7242 38.2303 21.8968C37.6786 21.0081 37.035 20.2726 36.2995 19.5984C35.5639 18.9548 34.7364 18.4032 33.8783 18.0355C32.9895 17.6371 32.1313 17.3919 31.2119 17.3C30.7828 17.2387 30.2925 17.2387 29.8634 17.2387H29.1585C28.9133 17.2694 28.6988 17.3 28.4842 17.3306C27.5648 17.5145 26.7373 17.8516 26.0018 18.2806C25.2662 18.7097 24.6226 19.2919 24.0709 19.9355C23.5193 20.579 23.1208 21.2532 22.845 21.9887C22.5692 22.6935 22.4159 23.4597 22.3853 24.1952V24.9919C22.3853 25.0839 22.3853 25.1758 22.4159 25.2677C22.4466 25.6355 22.5079 25.9726 22.6305 26.3097C22.845 26.9839 23.1515 27.5968 23.5499 28.1177C23.9483 28.6387 24.4081 29.0677 24.8984 29.4048C25.4194 29.7419 25.9098 29.9871 26.4615 30.1403C27.0131 30.2935 27.5035 30.3855 27.9939 30.3548H28.6988C28.7601 30.3548 28.8214 30.3242 28.8827 30.3242C28.944 30.3242 28.9746 30.2935 29.0666 30.2935C29.1585 30.2629 29.3117 30.2323 29.4037 30.2016C29.6182 30.1403 29.8021 30.0177 30.0166 29.9565C30.2312 29.8645 30.3844 29.7419 30.5377 29.65C30.5683 29.6194 30.6296 29.5887 30.6602 29.5581C30.8441 29.4355 30.8748 29.1903 30.7215 29.0065C30.599 28.8839 30.3844 28.8226 30.2005 28.9145C30.1699 28.9452 30.1392 28.9452 30.0779 28.9758C29.9553 29.0371 29.7715 29.0984 29.6489 29.1597C29.465 29.1903 29.3117 29.2516 29.1278 29.2823C29.0359 29.2823 28.944 29.3129 28.852 29.3129H28.3004C28.3004 29.3129 28.2697 29.3129 28.3004 29.3129H28.0858C28.0552 29.3129 27.9939 29.3129 27.9632 29.2823C27.5954 29.221 27.197 29.0984 26.8292 28.9452C26.4615 28.7613 26.0937 28.5468 25.7872 28.2403C25.4501 27.9339 25.1743 27.5968 24.9291 27.1984C24.6839 26.8 24.5613 26.3403 24.5 25.9113C24.4694 25.6661 24.4387 25.4516 24.4694 25.2065V24.9919C24.4694 25.0226 24.4694 24.9919 24.4694 24.9919V24.8387C24.4694 24.7161 24.5 24.5935 24.5306 24.471C24.7145 23.4597 25.2049 22.479 25.9711 21.7435C26.1856 21.529 26.3695 21.3758 26.6147 21.2226C26.8599 21.0387 27.0744 20.9161 27.3196 20.8242C27.5648 20.7323 27.8406 20.6097 28.0858 20.5484C28.3616 20.4871 28.6375 20.4258 28.8827 20.4258C29.0053 20.4258 29.1585 20.3952 29.2811 20.3952H29.5263C29.5569 20.3952 29.5263 20.3952 29.5263 20.3952H29.6489C29.9553 20.4258 30.2618 20.4565 30.5377 20.5177C31.12 20.6403 31.6716 20.8548 32.2233 21.1613C33.296 21.7742 34.2154 22.6935 34.7671 23.7968C35.0429 24.3484 35.2268 24.9306 35.3494 25.5742C35.38 25.7581 35.38 25.8806 35.4107 26.0339V26.8613C35.4107 27.0452 35.38 27.1984 35.38 27.3823C35.3494 27.5661 35.3494 27.7194 35.3187 27.9032C35.2881 28.0871 35.2574 28.2403 35.2268 28.4242C35.1655 28.7613 35.0123 29.0677 34.9203 29.4048C34.6751 30.0484 34.338 30.6613 33.9396 31.1823C33.1427 32.2855 32.0088 33.2048 30.7828 33.7871C30.1392 34.0629 29.4956 34.3081 28.8214 34.4C28.4842 34.4613 28.1471 34.4919 27.81 34.4919H27.3196C27.3503 34.4919 27.3196 34.4919 27.3196 34.4919H27.289C27.1051 34.4919 26.9212 34.4919 26.7373 34.4613C26.0018 34.4 25.2968 34.2468 24.5919 34.0629C23.887 33.8484 23.2128 33.6032 22.5692 33.2661C21.282 32.5919 20.148 31.6113 19.2285 30.5081C18.7995 29.9258 18.3704 29.3129 18.0333 28.7C17.6961 28.0871 17.451 27.3823 17.2671 26.7081C17.0525 26.0339 16.9606 25.329 16.9299 24.6242V23.5516C16.9299 23.2145 16.9606 22.8468 17.0219 22.479C17.0525 22.1113 17.1138 21.7742 17.2058 21.4065C17.2671 21.0387 17.3897 20.7016 17.4816 20.3339C17.6961 19.629 17.9107 18.9548 18.2172 18.3113C18.8301 17.0242 19.5963 15.8903 20.5158 14.971C20.7609 14.7258 20.9755 14.5419 21.2513 14.3274C21.3433 14.2355 21.5884 14.021 21.8643 13.8677C22.1401 13.7145 22.4159 13.5306 22.7224 13.4081C22.845 13.3468 22.9982 13.2855 23.1515 13.1935C23.2128 13.1629 23.2741 13.1323 23.3967 13.1016C23.458 13.071 23.5193 13.0403 23.6419 13.0097C23.9483 12.8871 24.2548 12.7645 24.5613 12.6726C24.6226 12.6419 24.7452 12.6419 24.8065 12.6113C24.8678 12.5806 24.9904 12.5806 25.0517 12.55C25.2356 12.5194 25.3581 12.4887 25.5114 12.4274C25.5727 12.3968 25.6953 12.3968 25.7566 12.3661C25.8179 12.3661 25.9405 12.3355 26.0018 12.3355C26.063 12.3355 26.1856 12.3048 26.2469 12.3048L26.3695 12.2742L26.4921 12.2435C26.5534 12.2435 26.676 12.2129 26.7373 12.2129C26.8292 12.2129 26.9212 12.1823 27.0131 12.1823C27.0744 12.1823 27.2277 12.1516 27.289 12.1516C27.3503 12.1516 27.3809 12.1516 27.4729 12.121H27.6874C27.7793 12.121 27.8713 12.121 27.9632 12.0903H28.0858C28.0858 12.0903 28.1165 12.0903 28.0858 12.0903H29.3424C29.9553 12.121 30.5683 12.1823 31.12 12.3048C32.2539 12.5194 33.3879 12.8871 34.3687 13.3774C35.3494 13.8371 36.2688 14.45 37.0044 15.0935C37.035 15.1242 37.0963 15.1548 37.127 15.2161C37.1576 15.2468 37.2189 15.2774 37.2496 15.3387C37.3415 15.4 37.4335 15.5226 37.5254 15.5839C37.6173 15.6452 37.7093 15.7677 37.8012 15.829C37.8625 15.921 37.9851 16.0129 38.0464 16.1048C38.3835 16.4419 38.69 16.8097 38.9659 17.1468C39.5175 17.8516 39.9466 18.5565 40.2837 19.2306C40.3144 19.2613 40.3144 19.2919 40.345 19.3532C40.3757 19.3839 40.3757 19.4145 40.4063 19.4758C40.437 19.5371 40.4676 19.6597 40.5289 19.721C40.5595 19.7823 40.5902 19.9048 40.6208 19.9661C40.6515 20.0274 40.6821 20.15 40.7128 20.2113C40.8354 20.5177 40.958 20.8242 41.0499 21.1306C41.2338 21.5903 41.3257 22.0194 41.4177 22.3565C41.4483 22.479 41.6016 22.6016 41.7242 22.6016C41.9081 22.6016 42 22.479 42 22.2952C41.9081 21.7742 41.9081 21.3452 41.8774 20.8242V20.8242Z" fill="url(#paint0_linear_418_253)"/>
<defs>
<linearGradient id="paint0_linear_418_253" x1="24.4691" y1="50.5679" x2="24.4691" y2="15.8886" gradientUnits="userSpaceOnUse">
<stop stop-color="#FCEE1F"/>
<stop offset="1" stop-color="#F15B2A"/>
</linearGradient>
</defs>
</svg>
