<svg width="50" height="47" viewBox="0 0 50 47" fill="none" xmlns="http://www.w3.org/2000/svg">
<path d="M0 5C0 2.23858 2.23858 0 5 0H44.3549C47.1163 0 49.3549 2.23858 49.3549 5V41.1707C49.3549 43.9321 47.1163 46.1707 44.3549 46.1707H5C2.23858 46.1707 0 43.9321 0 41.1707V5Z" fill="#50774A"/>
<path fill-rule="evenodd" clip-rule="evenodd" d="M31.0729 16.7063C31.5118 17.9759 31.8279 19.272 31.9318 20.6154C32.0608 22.282 32.0018 23.9368 31.6504 25.5761C31.6408 25.6212 31.6206 25.6636 31.6056 25.7073C31.4954 25.7076 31.383 25.6939 31.2752 25.7106C30.365 25.8536 29.4555 26.0018 28.5461 26.1492C27.606 26.3015 26.6645 26.4478 25.7261 26.6105C25.3936 26.6679 24.9821 26.5993 24.8478 27.0592C24.844 27.0718 24.8057 27.074 24.7836 27.0811L24.829 24.3327L24.7827 17.7013L25.2208 17.6261C25.9372 17.5088 26.6536 17.3899 27.3706 17.2759C28.2261 17.14 29.0826 17.0079 29.9387 16.8753C30.3163 16.8165 30.6945 16.7626 31.0729 16.7063Z" fill="#439934"/>
<path fill-rule="evenodd" clip-rule="evenodd" d="M23.879 35.0929C23.4169 34.6956 22.9387 34.3158 22.4957 33.898C20.1122 31.6498 18.3687 29.0037 17.5101 25.8135C17.2736 24.9355 17.1158 24.0433 17.0652 23.136C17.0297 22.5011 16.9783 21.8604 17.0231 21.2288C17.1426 19.5488 17.3854 17.8849 17.8782 16.2667L17.9052 16.229C17.9531 16.2927 18.022 16.349 18.0463 16.421C18.5273 17.8374 19.0047 19.2549 19.4797 20.6732C20.9721 25.1302 22.4626 29.5883 23.9575 34.0443C23.9868 34.1312 24.0625 34.2026 24.1169 34.2811L23.879 35.0929Z" fill="#45A538"/>
<path fill-rule="evenodd" clip-rule="evenodd" d="M31.0729 16.7063C30.6945 16.7627 30.316 16.8165 29.9384 16.8748C29.0823 17.0074 28.2259 17.1395 27.3703 17.2754C26.6533 17.3894 25.9369 17.5083 25.2205 17.6256L24.7825 17.7008L24.7792 17.4151C24.7647 17.1802 24.7398 16.9456 24.7371 16.7107C24.7182 15.2128 24.7065 13.7149 24.6879 12.217C24.6764 11.2794 24.6592 10.3421 24.64 9.40474C24.6283 8.82231 24.6157 8.23962 24.5894 7.65802C24.5752 7.34548 24.5249 7.03458 24.5044 6.72204C24.4929 6.54239 24.5088 6.36138 24.5123 6.18091C24.7357 6.61376 24.9542 7.04989 25.1839 7.47946C25.5467 8.15868 26.1248 8.65907 26.6451 9.20513C28.7022 11.3631 30.1626 13.8722 31.0729 16.7063Z" fill="#46A037"/>
<path fill-rule="evenodd" clip-rule="evenodd" d="M24.7833 27.0808C24.8054 27.0737 24.844 27.0715 24.8475 27.0589C24.9818 26.599 25.3933 26.6676 25.7258 26.6102C26.6642 26.4478 27.6057 26.3012 28.5458 26.1489C29.4552 26.0015 30.3647 25.8533 31.2749 25.7103C31.3827 25.6934 31.4951 25.7073 31.6053 25.707C31.4352 26.3141 31.3012 26.9342 31.0855 27.5246C30.8405 28.1942 30.5441 28.8477 30.2293 29.4884C29.7582 30.444 29.175 31.3401 28.4922 32.158C27.9674 32.7891 27.3826 33.3723 26.7963 33.9484C26.4723 34.267 26.0903 34.5265 25.7348 34.8128L25.6427 34.7499L25.3107 34.4661L24.9673 33.7133C24.7327 32.8352 24.6047 31.932 24.5861 31.0232L24.5924 30.8698L24.6392 30.2065C24.6548 29.98 24.6755 29.7539 24.6851 29.527C24.7204 28.7116 24.751 27.8962 24.7833 27.0808Z" fill="#409433"/>
<path fill-rule="evenodd" clip-rule="evenodd" d="M24.7833 27.0809C24.751 27.8963 24.7204 28.7117 24.6857 29.5274C24.6761 29.7543 24.6553 29.9805 24.6397 30.2069L24.4306 30.2859C23.966 28.9182 23.5011 27.5649 23.0464 26.2081C22.2945 23.9635 21.5515 21.7153 20.8007 19.4701C20.1942 17.6579 19.5835 15.8471 18.9686 14.0377C18.9399 13.9529 18.8573 13.8867 18.7999 13.8118L20.1387 11.3503C20.1846 11.4302 20.2453 11.5048 20.2743 11.5907C20.8943 13.4233 21.5112 15.257 22.1249 17.0917C22.9223 19.4788 23.7147 21.8678 24.5115 24.2552C24.5432 24.3507 24.5957 24.4387 24.6457 24.5456L24.8289 24.3323L24.7833 27.0809Z" fill="#4FAA41"/>
<path fill-rule="evenodd" clip-rule="evenodd" d="M18.8002 13.812C18.8576 13.8869 18.9399 13.9531 18.9689 14.0379C19.5838 15.8472 20.1945 17.658 20.8009 19.4703C21.5518 21.7154 22.2947 23.9637 23.0467 26.2083C23.5011 27.5648 23.966 28.9183 24.4308 30.2861L24.64 30.2071L24.5933 30.8704L24.5509 31.0233C24.4781 31.7495 24.4169 32.4774 24.3283 33.202C24.2837 33.5651 24.1891 33.9217 24.1172 34.2813C24.0631 34.2028 23.987 34.1314 23.9578 34.0445C22.4629 29.5883 20.9724 25.1304 19.48 20.6734C19.0052 19.255 18.5274 17.8376 18.0466 16.4212C18.0223 16.3492 17.9536 16.2929 17.9055 16.2292L18.8002 13.812Z" fill="#4AA73C"/>
<path fill-rule="evenodd" clip-rule="evenodd" d="M24.8287 24.3325L24.6455 24.5458C24.5954 24.4389 24.5429 24.3506 24.5112 24.2554C23.7147 21.868 22.922 19.479 22.1246 17.0919C21.5109 15.2572 20.8941 13.4235 20.274 11.5909C20.2453 11.505 20.1846 11.4301 20.1384 11.3505L21.7941 9.17261C21.8463 9.24233 21.9207 9.3044 21.9477 9.38288C22.4074 10.7285 22.8629 12.0757 23.3157 13.4237C23.7387 14.6826 24.1555 15.9435 24.5834 17.2007C24.6121 17.285 24.7119 17.3446 24.7786 17.4157L24.7819 17.7014C24.7978 19.9113 24.8134 22.1221 24.8287 24.3325Z" fill="#57AE47"/>
<path fill-rule="evenodd" clip-rule="evenodd" d="M24.7792 17.415C24.7125 17.344 24.6127 17.2843 24.584 17.2001C24.156 15.9429 23.7393 14.682 23.3163 13.4231C22.8635 12.0751 22.4079 10.7281 21.9483 9.38228C21.9212 9.3038 21.8468 9.24173 21.7946 9.172C22.333 8.64481 22.8547 8.09876 23.4147 7.59591C23.9127 7.14911 24.313 6.67005 24.3313 5.96403C24.3321 5.93478 24.3474 5.90552 24.3709 5.82349L24.5129 6.1806C24.5093 6.36134 24.4932 6.54208 24.5049 6.72173C24.5254 7.03427 24.5758 7.34517 24.59 7.6577C24.6162 8.23931 24.6288 8.822 24.6406 9.40442C24.6594 10.3418 24.6766 11.2791 24.6884 12.2167C24.7067 13.7146 24.7188 15.2125 24.7376 16.7104C24.7398 16.9458 24.7644 17.1802 24.7792 17.415Z" fill="#60B24F"/>
<path fill-rule="evenodd" clip-rule="evenodd" d="M24.1166 34.281C24.1886 33.9214 24.2832 33.5646 24.3277 33.2017C24.4166 32.4774 24.4776 31.7492 24.5503 31.023L24.5684 31.0203L24.5864 31.0233C24.605 31.932 24.733 32.8352 24.9676 33.7133C24.9195 33.7768 24.8514 33.8334 24.8259 33.905C24.6272 34.4656 24.4398 35.0305 24.24 35.591C24.2126 35.6676 24.1366 35.7272 24.083 35.7945L23.8788 35.0928L24.1166 34.281Z" fill="#A9AA88"/>
<path fill-rule="evenodd" clip-rule="evenodd" d="M24.0833 35.7948C24.1369 35.7275 24.2132 35.6679 24.2402 35.5913C24.4401 35.0308 24.6277 34.4661 24.8262 33.9053C24.8516 33.8337 24.9195 33.7771 24.9679 33.7136L25.311 34.4667C25.2432 34.5629 25.1497 34.6496 25.112 34.7568L24.4546 36.687C24.4275 36.7644 24.3351 36.8191 24.2733 36.8844L24.0833 35.7948Z" fill="#B6B598"/>
<path fill-rule="evenodd" clip-rule="evenodd" d="M24.2733 36.8843C24.3354 36.8192 24.4275 36.7642 24.4546 36.6869L25.1119 34.7567C25.1494 34.6498 25.2432 34.5628 25.311 34.4666L25.6432 34.7501C25.4827 34.9087 25.3936 35.0919 25.4472 35.3235L25.3463 35.6538C25.3003 35.7104 25.2339 35.7596 25.2112 35.8244C24.9818 36.4815 24.7628 37.1421 24.5317 37.7992C24.5025 37.8826 24.4212 37.948 24.3638 38.0212C24.334 37.642 24.3037 37.2635 24.2733 36.8843Z" fill="#C2C1A7"/>
<path fill-rule="evenodd" clip-rule="evenodd" d="M24.3641 38.0212C24.4212 37.9477 24.5025 37.8823 24.532 37.7992C24.763 37.1424 24.9821 36.4818 25.2115 35.8244C25.2342 35.7599 25.3004 35.7104 25.3466 35.6538L25.2074 37.17C25.1702 37.2129 25.1163 37.2504 25.0986 37.3004C24.9413 37.7418 24.7931 38.1864 24.6354 38.6277C24.6028 38.7188 24.5405 38.7992 24.4918 38.8842C24.4486 38.8276 24.3712 38.7729 24.3677 38.7138C24.3537 38.4839 24.3633 38.2523 24.3641 38.0212Z" fill="#CECDB7"/>
<path fill-rule="evenodd" clip-rule="evenodd" d="M24.4915 38.8841C24.5402 38.7988 24.6025 38.7184 24.6351 38.6276C24.7931 38.1866 24.941 37.742 25.0983 37.3004C25.116 37.2503 25.1702 37.2131 25.2071 37.1699L25.2104 38.1652L24.8773 39.0195L24.4915 38.8841Z" fill="#DBDAC7"/>
<path fill-rule="evenodd" clip-rule="evenodd" d="M24.8773 39.0197L25.2104 38.1655L25.279 39.1762L24.8773 39.0197Z" fill="#EBE9DC"/>
<path fill-rule="evenodd" clip-rule="evenodd" d="M25.4472 35.3236C25.3936 35.092 25.4825 34.9086 25.6432 34.7502L25.7354 34.8131L25.4472 35.3236Z" fill="#CECDB7"/>
<path fill-rule="evenodd" clip-rule="evenodd" d="M24.5864 31.0235L24.5684 31.0205L24.5503 31.0232L24.5927 30.8704L24.5864 31.0235Z" fill="#4FAA41"/>
</svg>
