<svg width="50" height="47" viewBox="0 0 50 47" fill="none" xmlns="http://www.w3.org/2000/svg">
<path d="M0 5C0 2.23858 2.23858 0 5 0H44.3549C47.1163 0 49.3549 2.23858 49.3549 5V41.1707C49.3549 43.9321 47.1163 46.1707 44.3549 46.1707H5C2.23858 46.1707 0 43.9321 0 41.1707V5Z" fill="#AEA6A6"/>
<path d="M24.5 6C14.8477 6 7 13.8477 7 23.5C7 33.1523 14.8477 41 24.5 41C27.5625 41 30.4336 40.207 32.9219 38.8398L20.2344 21.1211V31.1289H18.375V17.4297H20.2344L34.043 38.1562C38.8281 35.0391 42 29.6523 42 23.5C42 13.8477 34.1523 6 24.5 6ZM30.543 29.1328L28.4922 26.043V17.4297H30.543V29.1328Z" fill="#313131"/>
</svg>
