<svg width="50" height="47" viewBox="0 0 50 47" fill="none" xmlns="http://www.w3.org/2000/svg">
<path d="M0 5C0 2.23858 2.23858 0 5 0H44.3549C47.1163 0 49.3549 2.23858 49.3549 5V41.1707C49.3549 43.9321 47.1163 46.1707 44.3549 46.1707H5C2.23858 46.1707 0 43.9321 0 41.1707V5Z" fill="#B8FFB8"/>
<path d="M13.6992 19.8086C13.2891 19.8086 13.0156 20.1367 13.0156 20.5469V24.4023L8.66797 20.0273C8.44922 19.8086 8.06641 19.7539 7.79297 19.8633C7.51953 19.9727 7.27344 20.2461 7.27344 20.5469V26.207C7.27344 26.6172 7.68359 26.9453 8.09375 26.9453C8.50391 26.9453 8.91406 26.6172 8.91406 26.207V22.3516L13.3164 26.7266C13.4531 26.8633 13.6445 26.9453 13.8359 26.9453C13.918 26.9453 13.9453 26.918 14.0273 26.8906C14.3008 26.7813 14.3828 26.5078 14.3828 26.207V20.5742C14.3828 20.1641 14.1094 19.8086 13.6992 19.8086ZM19.0859 23.0352C18.7031 23.0352 18.3477 23.418 18.3477 23.8008C18.3477 24.1836 18.7031 24.5664 19.0859 24.5664L20.8906 24.6758L20.4805 25.6875H18.1562L17.0078 23.5273L18.1836 21.3125H20.6719L21.2461 22.4062H22.75L21.7656 20.2461L21.5469 19.9453H17.2812L17.0898 20.2734L15.4766 23.0898L15.2852 23.4453L15.4766 23.8008L17.0625 26.6172L17.2812 27.0547H21.4102L21.6016 26.5898L22.7773 24.1289L23.2969 22.9531H22.0938L19.0859 23.0352ZM24.7734 19.8086C24.3906 19.8086 23.9531 20.1641 23.9531 20.5469V22.4062H25.5938V20.5742C25.5938 20.1641 25.1562 19.8086 24.7734 19.8086ZM33.0859 19.8906C32.8125 19.7812 32.4297 19.8359 32.2383 20.0547L27.7812 24.4297V20.5742C27.7812 20.1641 27.5078 19.8359 27.0977 19.8359C26.6875 19.8359 26.4141 20.1641 26.4141 20.5742V26.2344C26.4141 26.5352 26.6055 26.8086 26.8789 26.918C26.9609 26.9453 27.0703 26.9727 27.1523 26.9727C27.3438 26.9727 27.5898 26.8906 27.7266 26.7539L32.1562 22.3789V26.2344C32.1562 26.6445 32.4297 26.9727 32.8398 26.9727C33.25 26.9727 33.5234 26.6445 33.5234 26.2344V20.5742C33.5234 20.2734 33.3594 20 33.0859 19.8906ZM39.0469 23.3906L41.3438 21.0938C41.6445 20.793 41.6445 20.3281 41.3438 20.0547C41.043 19.7539 40.5781 19.7539 40.3047 20.0547L38.0078 22.3516L35.7109 20.0547C35.4102 19.7539 34.9453 19.7539 34.6719 20.0547C34.3711 20.3555 34.3711 20.8203 34.6719 21.0938L36.9688 23.3906L34.6719 25.6875C34.3711 25.9883 34.3711 26.4531 34.6719 26.7266C34.8086 26.8633 35 26.9453 35.1914 26.9453C35.3828 26.9453 35.5742 26.8633 35.7109 26.7266L38.0078 24.4297L40.3047 26.7266C40.4414 26.8633 40.6328 26.9453 40.8242 26.9453C41.0156 26.9453 41.207 26.8633 41.3438 26.7266C41.6445 26.4258 41.6445 25.9609 41.3438 25.6875L39.0469 23.3906ZM23.9531 26.207C23.9531 26.5898 24.3633 26.9453 24.7734 26.9453C25.1562 26.9453 25.5938 26.5898 25.5938 26.207V22.9531H23.9531V26.207Z" fill="#009900"/>
</svg>
