<svg width="50" height="47" viewBox="0 0 50 47" fill="none" xmlns="http://www.w3.org/2000/svg">
<path d="M0 5C0 2.23858 2.23858 0 5 0H44.3549C47.1163 0 49.3549 2.23858 49.3549 5V41.1707C49.3549 43.9321 47.1163 46.1707 44.3549 46.1707H5C2.23858 46.1707 0 43.9321 0 41.1707V5Z" fill="#34405A"/>
<path d="M21.8531 13.4276L16.1066 10.5278L9.79617 13.6756L15.7008 16.6397L21.8531 13.4276ZM24.4893 14.7584L30.5156 17.8015L24.264 20.9398L18.3509 17.9716L24.4893 14.7584ZM32.5385 10.5705L38.7305 13.6754L33.1923 16.4557L27.1543 13.4093L32.5385 10.5705ZM29.8736 9.2331L24.299 6.43774L18.7854 9.19017L24.5298 12.0859L29.8736 9.2331ZM25.5158 33.2357V40.8416L32.2684 37.4718L32.2621 29.8626L25.5158 33.2357ZM32.2588 27.2064L32.2514 19.6773L25.5158 23.0258V30.5582L32.2588 27.2064ZM40.3648 25.7963V33.4323L34.6046 36.3056L34.6002 28.7049L40.3648 25.7963ZM40.3648 23.1262V15.643L34.5939 18.5119L34.5983 26.0561L40.3648 23.1262Z" fill="#4CABCF"/>
<path d="M23.1317 23.0258L18.5847 20.7379V30.62C18.5847 30.62 13.0208 18.7848 12.507 17.7208C12.4409 17.583 12.1674 17.4334 12.098 17.396C11.095 16.8726 8.17278 15.3933 8.17278 15.3933V32.858L12.2155 35.0253V25.8925C12.2155 25.8925 17.7196 36.468 17.7762 36.5844C17.8336 36.6998 18.3829 37.8127 18.9746 38.2048C19.7594 38.726 23.1295 40.7522 23.1295 40.7522L23.1317 23.0258Z" fill="#4C75CF"/>
</svg>
