<svg width="50" height="47" viewBox="0 0 50 47" fill="none" xmlns="http://www.w3.org/2000/svg">
<path d="M0 5C0 2.23858 2.23858 0 5 0H44.3549C47.1163 0 49.3549 2.23858 49.3549 5V41.1707C49.3549 43.9321 47.1163 46.1707 44.3549 46.1707H5C2.23858 46.1707 0 43.9321 0 41.1707V5Z" fill="#8278BA"/>
<path d="M20.3156 9.14966H23.6652V16.1051H20.3156V9.14966ZM20.3156 23.437H23.6652V30.3922H20.3156V23.437Z" fill="#130754"/>
<path d="M20.3156 18.135H23.6652V21.4165H20.3156V18.135Z" fill="#FFCA00"/>
<path d="M14.9343 14.8674H18.284V37.9871H14.9343V14.8674ZM25.5856 29.1756H28.9352V36.1308H25.5856V29.1756ZM25.5856 14.8756H28.9352V21.8311H25.5856V14.8756Z" fill="#130754"/>
<path d="M25.5855 23.8625H28.9352V27.1441H25.5855V23.8625Z" fill="#E70488"/>
<path d="M30.8541 7.33789H34.2038V30.4576H30.8541V7.33789Z" fill="#130754"/>
</svg>
