<svg width="50" height="47" viewBox="0 0 50 47" fill="none" xmlns="http://www.w3.org/2000/svg">
<path d="M0 5C0 2.23858 2.23858 0 5 0H44.3549C47.1163 0 49.3549 2.23858 49.3549 5V41.1707C49.3549 43.9321 47.1163 46.1707 44.3549 46.1707H5C2.23858 46.1707 0 43.9321 0 41.1707V5Z" fill="#6C8BA4"/>
<path d="M32.6509 31.1868C32.8656 29.4004 32.8013 29.1382 34.1318 29.4278L34.4695 29.4573C35.4927 29.5038 36.8312 29.2927 37.6176 28.9274C39.3105 28.1418 40.314 26.8306 38.6452 27.1749C34.8379 27.9605 34.5762 26.6712 34.5762 26.6712C38.5965 20.7062 40.2771 13.1339 38.8262 11.2803C34.8696 6.22467 28.0208 8.61534 27.9062 8.67713L27.8696 8.68397C27.1174 8.52784 26.2754 8.43459 25.3296 8.41928C23.6067 8.39084 22.2994 8.871 21.3076 9.62295C21.3076 9.62295 9.08962 4.58924 9.65809 15.9533C9.77895 18.3708 13.1231 34.2457 17.112 29.4507C18.57 27.6974 19.9787 26.2149 19.9787 26.2149C20.6782 26.6794 21.516 26.9168 22.3943 26.8315L22.4624 26.7735C22.441 26.9912 22.4503 27.2042 22.4894 27.4563C21.4621 28.6044 21.764 28.806 19.7097 29.2287C17.631 29.6569 18.8522 30.4195 19.6492 30.6189C20.6158 30.8606 22.8517 31.2029 24.3627 29.0881L24.3026 29.3293C24.7056 29.652 24.6786 31.6472 24.7354 33.0727C24.7926 34.4984 24.888 35.8287 25.1787 36.6131C25.4693 37.3974 25.8122 39.4175 28.5122 38.8389C30.7686 38.3566 32.4937 37.6607 32.6509 31.1868Z" fill="black"/>
<path d="M27.6331 40.2498C26.439 40.2498 25.6613 39.7879 25.1891 39.342C24.4762 38.6693 24.1935 37.8028 24.0245 37.2852L23.9515 37.0691C23.6114 36.1509 23.496 34.8289 23.4276 33.1265C23.4172 32.8708 23.4101 32.6075 23.4022 32.3283C23.3964 32.124 23.3893 31.8678 23.3789 31.5999C22.9487 31.805 22.4921 31.9493 22.0221 32.0286C21.1802 32.1724 20.2751 32.1259 19.3315 31.89C18.6657 31.7234 17.9739 31.3784 17.5796 30.8454C16.4303 31.852 15.3341 31.7155 14.7369 31.5162C13.6834 31.1648 12.7406 30.1774 11.8544 28.4983C11.223 27.302 10.6124 25.7434 10.0393 23.8654C9.04123 20.5951 8.40713 17.1506 8.3508 16.0197C8.17362 12.48 9.12655 9.94852 11.1825 8.4963C14.4258 6.20544 19.3397 7.55266 21.1313 8.16434C22.3349 7.43891 23.7511 7.08591 25.3512 7.11134C26.2106 7.12528 27.029 7.20075 27.7892 7.33638C28.5822 7.087 30.1484 6.72907 31.9414 6.75149C35.2447 6.79087 37.9821 8.07821 39.8571 10.4743C41.1953 12.1839 40.5336 15.7738 40.0203 17.7617C39.2979 20.5579 38.0322 23.5318 36.4774 26.1207C36.8996 26.1237 37.5113 26.0731 38.3808 25.8935C40.0964 25.5394 40.5981 26.4592 40.7343 26.871C41.2798 28.5231 38.9085 29.7717 38.1689 30.1151C37.2212 30.555 35.676 30.823 34.4105 30.765L34.3553 30.7615L34.0228 30.7322L33.9899 31.0095L33.9582 31.2805C33.8732 34.5615 33.4045 36.6393 32.4401 38.0122C31.4292 39.4516 30.0243 39.8549 28.7867 40.1202C28.3645 40.2104 27.9809 40.2498 27.6331 40.2498ZM25.1202 28.3085C25.891 28.9254 25.9585 30.0861 26.019 32.2553C26.0266 32.526 26.0337 32.7822 26.0433 33.0215C26.0723 33.7461 26.1404 35.4427 26.4062 36.1597C26.4436 36.2611 26.4772 36.364 26.5128 36.4731C26.8089 37.3798 26.9574 37.8345 28.2379 37.5608C29.3128 37.3303 29.8654 37.1236 30.298 36.5078C30.9266 35.6125 31.2783 33.8117 31.3428 31.1552L32.6506 31.187L31.3518 31.0311L31.3901 30.7068C31.5145 29.6377 31.6042 28.8655 32.3187 28.3547C32.8921 27.9451 33.5453 27.9847 34.0657 28.0785C33.4939 27.6465 33.3359 27.1398 33.2938 26.932L33.1847 26.3947L33.4912 25.94C35.2568 23.3204 36.7126 20.101 37.4858 17.1068C38.2805 14.0304 38.0382 12.3966 37.7959 12.0876C34.5888 7.98962 29.0273 9.68165 28.4465 9.8736L28.3484 9.92665L27.8562 10.0183L27.6041 9.96602C26.909 9.82165 26.1368 9.74181 25.3091 9.72841C24.0087 9.70653 22.9595 10.0139 22.0992 10.6666L21.5023 11.1191L20.8097 10.8339C19.3299 10.2288 14.9833 9.01227 12.6897 10.6368C11.4166 11.5386 10.8366 13.3055 10.9657 15.8887C11.0083 16.7415 11.5878 19.97 12.5437 23.1011C13.8647 27.4283 15.0651 28.8658 15.5663 29.0328C15.6538 29.0624 15.8807 28.886 16.1066 28.6147C17.0483 27.4858 18.0235 26.3852 19.0307 25.3143L19.7881 24.5173L20.7039 25.1257C21.073 25.3709 21.4802 25.5101 21.8983 25.5364L24.0822 23.6737L23.7658 26.9025C23.7587 26.9749 23.7552 27.0736 23.7836 27.2568L23.8788 27.8688L23.4659 28.3304L23.4183 28.384L24.6181 28.9377L25.1202 28.3085Z" fill="black"/>
<path d="M38.6452 27.1751C34.8376 27.9607 34.5759 26.6714 34.5759 26.6714C38.5963 20.7061 40.2768 13.1336 38.8265 11.2805C34.8699 6.22516 28.0205 8.61582 27.9062 8.67789L27.8693 8.68445C27.1171 8.52832 26.2752 8.43535 25.3288 8.42004C23.6059 8.39187 22.2991 8.87176 21.3074 9.62371C21.3074 9.62371 9.08908 4.59027 9.65728 15.9541C9.77814 18.3718 13.1223 34.2468 17.1112 29.4518C18.5692 27.6985 19.9776 26.2159 19.9776 26.2159C20.6774 26.6805 21.5149 26.9178 22.3929 26.8325L22.4613 26.7745C22.4399 26.9922 22.4498 27.2052 22.4886 27.4573C21.461 28.6055 21.7629 28.807 19.7086 29.2297C17.6299 29.6579 18.8511 30.4205 19.6484 30.6199C20.6147 30.8616 22.8509 31.2039 24.3617 29.0892L24.3012 29.3304C24.704 29.653 24.9867 31.4282 24.9394 33.0373C24.8919 34.6465 24.8601 35.7515 25.1776 36.6145C25.4948 37.4774 25.8109 39.4188 28.5113 38.8402C30.7678 38.3568 31.937 37.1036 32.0999 35.0135C32.2153 33.5273 32.4765 33.7472 32.4931 32.4186L32.7029 31.7896C32.9446 29.7752 32.7411 29.1255 34.1316 29.4277L34.4693 29.4572C35.4925 29.5037 36.8315 29.2926 37.6176 28.9273C39.3102 28.1423 40.314 26.8309 38.6452 27.1751Z" fill="#336791"/>
<path d="M27.7695 39.4434C25.5186 39.4434 24.8055 37.6609 24.5137 36.9319C24.0866 35.8636 23.9944 31.7177 24.0896 28.3178C24.091 28.2604 24.1038 28.204 24.1271 28.1516C24.1504 28.0992 24.1839 28.0519 24.2256 28.0125C24.2673 27.9731 24.3163 27.9424 24.37 27.922C24.4236 27.9017 24.4807 27.8921 24.538 27.894C24.5953 27.8955 24.6517 27.9083 24.704 27.9317C24.7563 27.9551 24.8035 27.9885 24.8429 28.0302C24.8822 28.0718 24.913 28.1208 24.9334 28.1743C24.9538 28.2278 24.9635 28.2848 24.9619 28.3421C24.8522 32.2635 25.0078 35.8171 25.3239 36.6079C25.8172 37.8408 26.5653 38.9192 28.6803 38.4661C30.6882 38.0355 31.4401 37.2742 31.7751 35.3325C32.0321 33.8426 32.5405 29.6038 32.6031 28.7673C32.6073 28.7101 32.6227 28.6544 32.6485 28.6032C32.6742 28.552 32.7099 28.5064 32.7533 28.469C32.7968 28.4316 32.8471 28.4032 32.9016 28.3853C32.9561 28.3674 33.0135 28.3604 33.0707 28.3648C33.186 28.3736 33.2931 28.4277 33.3686 28.5154C33.4441 28.603 33.4817 28.717 33.4732 28.8324C33.4078 29.7033 32.9019 33.9339 32.6351 35.481C32.2397 37.7743 31.2173 38.8145 28.8633 39.3193C28.4632 39.4049 28.0998 39.4431 27.7695 39.4434ZM15.5644 30.7369C15.3676 30.7362 15.1723 30.7039 14.9858 30.6412C13.5237 30.1534 12.1311 27.7723 10.8465 23.5632C9.86866 20.3594 9.24905 17.0152 9.19464 15.9283C9.03358 12.7061 9.86319 10.4265 11.661 9.15309C15.2176 6.63309 21.2007 9.03278 21.4537 9.13614C21.5608 9.1799 21.6462 9.26444 21.691 9.37115C21.7358 9.47787 21.7364 9.59801 21.6926 9.70516C21.6489 9.81231 21.5643 9.89768 21.4576 9.9425C21.3509 9.98732 21.2308 9.98791 21.1236 9.94415C21.0659 9.92063 15.3287 7.62211 12.1636 9.86622C10.6264 10.9561 9.92061 12.9812 10.0658 15.8848C10.1115 16.8006 10.6903 20.0643 11.6807 23.3084C12.8275 27.066 14.1326 29.437 15.2617 29.8135C15.4389 29.8725 15.9781 30.0522 16.7489 29.1252C17.6478 28.0457 18.5804 26.9946 19.5453 25.9736C19.6261 25.8931 19.7351 25.8473 19.8492 25.8462C19.9632 25.8451 20.0731 25.8886 20.1555 25.9675C20.2378 26.0464 20.286 26.1544 20.2897 26.2684C20.2934 26.3824 20.2524 26.4933 20.1753 26.5773C20.1622 26.591 18.85 27.9629 17.4199 29.6833C16.7426 30.4979 16.0935 30.7369 15.5644 30.7369ZM34.5489 27.0605C34.4698 27.0604 34.3922 27.0388 34.3244 26.998C34.2566 26.9572 34.2012 26.8988 34.1641 26.8289C34.127 26.7591 34.1095 26.6805 34.1136 26.6015C34.1177 26.5225 34.1432 26.4461 34.1874 26.3805C38.2515 20.3498 39.678 13.063 38.4563 11.5016C36.9185 9.53672 34.7471 8.51051 32.0021 8.45118C29.9696 8.40743 28.3541 8.92641 28.09 9.01692L28.0235 9.04399C27.758 9.12739 27.5543 8.98192 27.4775 8.81184C27.4337 8.7144 27.427 8.60429 27.4588 8.50229C27.4906 8.40029 27.5586 8.31344 27.65 8.25813C27.6626 8.25075 27.7025 8.23379 27.7673 8.21001L27.7616 8.21165L27.7673 8.20973C28.216 8.0454 29.8561 7.55348 31.8875 7.57672C34.9248 7.60899 37.4339 8.78012 39.1429 10.9641C39.9514 11.9974 39.9533 14.3779 39.1481 17.4957C38.3272 20.6744 36.7826 24.0904 34.9106 26.8683C34.8269 26.9932 34.6891 27.0605 34.5489 27.0605ZM34.7567 29.8523C34.0627 29.8523 33.4406 29.7544 33.0682 29.5313C32.6854 29.3019 32.6124 28.9902 32.6028 28.8247C32.4983 26.99 33.5106 26.6706 34.0269 26.5248C33.9549 26.416 33.8527 26.2881 33.7469 26.156C33.4458 25.7797 33.0335 25.2646 32.7157 24.494C32.666 24.3737 32.5101 24.094 32.3296 23.77C31.351 22.015 29.3147 18.3633 30.6228 16.4932C31.2282 15.6278 32.4338 15.2871 34.2101 15.4772C33.6875 13.8852 31.1992 8.90536 25.2949 8.80856C23.5192 8.77903 22.0629 9.32508 20.9686 10.43C18.5186 12.9044 18.6072 17.3814 18.6085 17.4262C18.6101 17.4835 18.6003 17.5405 18.5797 17.594C18.5592 17.6475 18.5284 17.6964 18.4889 17.738C18.4495 17.7795 18.4023 17.8129 18.3499 17.8362C18.2976 17.8596 18.2412 17.8723 18.1839 17.8738C18.1266 17.8753 18.0696 17.8656 18.0161 17.845C17.9626 17.8245 17.9137 17.7936 17.8721 17.7542C17.8306 17.7148 17.7972 17.6675 17.7739 17.6152C17.7506 17.5629 17.7378 17.5065 17.7363 17.4492C17.7308 17.2504 17.6395 12.5522 20.3487 9.8159C21.6166 8.5354 23.2857 7.90321 25.3094 7.93629C29.0867 7.99836 31.5181 9.91872 32.8924 11.5186C34.3905 13.2623 35.125 15.1857 35.1854 15.8277C35.2305 16.3051 34.8879 16.4006 34.8187 16.4148L34.6612 16.4183C32.9181 16.1391 31.7997 16.333 31.3373 16.9936C30.3423 18.4158 32.2687 21.8701 33.0912 23.3453C33.3012 23.7216 33.4526 23.9936 33.5221 24.1615C33.7923 24.8167 34.1447 25.2569 34.4277 25.6107C34.6768 25.9219 34.8926 26.1918 34.9697 26.5084C35.0055 26.5713 35.5138 27.3233 38.5301 26.7007C39.2862 26.5448 39.7395 26.678 39.8781 27.0972C40.1508 27.9216 38.6212 28.8832 37.7743 29.2765C37.0155 29.6292 35.8045 29.8523 34.7567 29.8523ZM33.4726 28.7528C33.5683 28.8493 34.0471 29.0159 35.0386 28.9732C35.9201 28.9355 36.8498 28.7438 37.4076 28.4849C38.121 28.1534 38.5974 27.7829 38.844 27.53L38.7073 27.5552C36.7787 27.9533 35.4146 27.9002 34.6528 27.3974C34.6016 27.3636 34.5523 27.327 34.5051 27.2877C34.4225 27.3203 34.3462 27.3416 34.2918 27.3569C33.8598 27.4781 33.413 27.6036 33.4726 28.7528ZM21.0142 31.1905C20.5352 31.1905 20.031 31.1252 19.5161 30.9964C18.9826 30.8629 18.0833 30.4613 18.0969 29.8015C18.1125 29.0613 19.189 28.8392 19.5943 28.7558C21.0583 28.4542 21.1537 28.3334 21.6112 27.7523C21.7446 27.5831 21.9106 27.3722 22.137 27.1196C22.473 26.7433 22.8403 26.5527 23.2285 26.5527C23.499 26.5527 23.7207 26.6443 23.8673 26.7053C24.3343 26.8989 24.724 27.367 24.8842 27.9268C25.0289 28.4318 24.9597 28.918 24.6901 29.2956C23.8049 30.5351 22.5337 31.1905 21.0142 31.1905ZM19.0395 29.8389C19.171 29.9406 19.4346 30.0765 19.728 30.1498C20.174 30.2614 20.6065 30.318 21.0145 30.318C22.2576 30.318 23.2556 29.8034 23.9805 28.7884C24.1317 28.5767 24.0863 28.3079 24.0458 28.1666C23.9611 27.8704 23.7505 27.6011 23.5337 27.5111C23.4161 27.4625 23.3185 27.4253 23.2288 27.4253C23.1807 27.4253 23.0341 27.4253 22.7875 27.7012C22.6173 27.8926 22.4537 28.0898 22.2969 28.2924C21.7271 29.0159 21.466 29.2614 19.7707 29.6106C19.3569 29.6954 19.1448 29.7818 19.0395 29.8389ZM22.3943 27.8264C22.2901 27.8262 22.1895 27.7888 22.1105 27.7209C22.0315 27.653 21.9794 27.5591 21.9636 27.4562C21.9528 27.3838 21.9455 27.3108 21.9417 27.2377C20.8305 27.2169 19.7583 26.74 18.9443 25.8907C17.9151 24.817 17.4467 23.3292 17.6594 21.8091C17.8905 20.1584 17.8041 18.7013 17.7576 17.9184C17.7448 17.7007 17.7355 17.5435 17.736 17.4347C17.7368 17.2966 17.7396 16.9305 18.9635 16.31C19.3988 16.0894 20.2716 15.7044 21.2251 15.6057C22.8047 15.4424 23.846 16.146 24.1577 17.587C24.9991 21.4775 24.2244 23.1982 23.6587 24.4549C23.5534 24.689 23.4539 24.9099 23.3743 25.124L23.304 25.3127C23.0051 26.1141 22.7467 26.8065 22.826 27.3236C22.8347 27.3802 22.8322 27.438 22.8186 27.4936C22.8049 27.5493 22.7805 27.6017 22.7466 27.6479C22.7127 27.6941 22.67 27.7331 22.621 27.7628C22.572 27.7925 22.5176 27.8123 22.461 27.8209L22.3943 27.8264ZM18.6113 17.5556L18.6282 17.867C18.6764 18.6802 18.766 20.1934 18.5232 21.9303C18.348 23.184 18.7308 24.4076 19.574 25.287C20.2404 25.9821 21.1173 26.3657 22.0186 26.3657H22.0372C22.1381 25.9405 22.3057 25.4915 22.4862 25.0078L22.5559 24.8202C22.6458 24.5785 22.7511 24.3445 22.8627 24.0967C23.4071 22.887 24.0849 21.3812 23.3043 17.7716C23.1498 17.0565 22.7749 16.6428 22.1589 16.5064C20.8934 16.2269 19.0075 17.1788 18.6113 17.5556ZM21.2445 17.3704C21.2226 17.5247 21.5269 17.9365 21.924 17.9914C22.3202 18.0469 22.6592 17.7248 22.6808 17.5706C22.7024 17.4164 22.3984 17.2463 22.0014 17.1911C21.6046 17.1358 21.2655 17.2162 21.2445 17.3704ZM22.015 18.1432L21.9037 18.1355C21.6576 18.1013 21.4088 17.9463 21.2385 17.7204C21.1786 17.6411 21.081 17.4875 21.1004 17.3502C21.128 17.149 21.3735 17.0284 21.7566 17.0284C21.8422 17.0284 21.9314 17.0347 22.021 17.0472C22.2305 17.0762 22.4249 17.1366 22.5685 17.2168C22.8173 17.3557 22.8356 17.5107 22.8244 17.5908C22.7938 17.8131 22.4402 18.1432 22.015 18.1432ZM21.3891 17.3961C21.4014 17.4913 21.6371 17.8052 21.9439 17.8476L22.0153 17.8525C22.2986 17.8525 22.5102 17.6297 22.5351 17.5566C22.5089 17.5069 22.3267 17.3833 21.9814 17.3352C21.907 17.3245 21.832 17.3191 21.7569 17.319C21.5349 17.319 21.417 17.3691 21.3891 17.3961ZM33.3124 17.0557C33.334 17.2099 33.0299 17.6217 32.6332 17.677C32.2367 17.7322 31.8973 17.4104 31.8755 17.2561C31.8547 17.1019 32.1587 16.9316 32.5552 16.8766C32.9517 16.8211 33.2905 16.9018 33.3124 17.0557ZM32.5415 17.7557C32.1598 17.7557 31.8303 17.4588 31.8033 17.266C31.7718 17.0347 32.1527 16.8588 32.5448 16.8044C32.6312 16.7924 32.7168 16.7864 32.7991 16.7864C33.1376 16.7864 33.3619 16.8856 33.3843 17.0459C33.3988 17.1495 33.3192 17.3095 33.1822 17.4538C33.0917 17.5487 32.9017 17.7131 32.6427 17.7489L32.5415 17.7557ZM32.7994 16.9318C32.7239 16.9318 32.6452 16.9376 32.5653 16.9485C32.1713 17.0035 31.9362 17.1615 31.9476 17.2463C31.9608 17.3395 32.2123 17.6105 32.5418 17.6105L32.623 17.6048C32.8382 17.575 32.9998 17.4344 33.0769 17.3535C33.1981 17.2263 33.2462 17.1066 33.2405 17.0658C33.2328 17.0117 33.0873 16.9318 32.7994 16.9318ZM33.8836 25.9123C33.8045 25.9124 33.727 25.8909 33.6592 25.8503C33.5914 25.8096 33.5359 25.7513 33.4987 25.6816C33.4615 25.6118 33.444 25.5333 33.448 25.4543C33.4521 25.3754 33.4775 25.299 33.5215 25.2334C34.4507 23.8457 34.2806 22.4307 34.1163 21.0621C34.046 20.4791 33.9738 19.8762 33.9924 19.2976C34.0115 18.7023 34.0873 18.2113 34.1603 17.7363C34.247 17.1736 34.329 16.642 34.2951 16.0109C34.292 15.9537 34.3002 15.8965 34.3193 15.8424C34.3383 15.7884 34.3678 15.7386 34.4061 15.696C34.4443 15.6534 34.4906 15.6187 34.5423 15.594C34.5939 15.5692 34.65 15.5549 34.7072 15.5518C34.7644 15.5487 34.8216 15.5569 34.8757 15.576C34.9297 15.595 34.9794 15.6245 35.0221 15.6628C35.0647 15.701 35.0994 15.7473 35.1241 15.799C35.1489 15.8506 35.1632 15.9067 35.1663 15.9639C35.2051 16.6852 35.1124 17.2868 35.0227 17.8689C34.9535 18.3182 34.8819 18.7827 34.8647 19.3255C34.848 19.8379 34.9133 20.3821 34.9825 20.9579C35.1575 22.4132 35.3558 24.0625 34.2467 25.7188C34.2068 25.7784 34.1527 25.8273 34.0894 25.861C34.0261 25.8948 33.9554 25.9124 33.8836 25.9123Z" fill="white"/>
</svg>
