<svg width="50" height="47" viewBox="0 0 50 47" fill="none" xmlns="http://www.w3.org/2000/svg">
<path d="M0 5.17066C0 2.40923 2.23858 0.170654 5 0.170654H44.3549C47.1163 0.170654 49.3549 2.40923 49.3549 5.17065V41.3413C49.3549 44.1027 47.1163 46.3413 44.3549 46.3413H5C2.23858 46.3413 0 44.1028 0 41.3413V5.17066Z" fill="#FFD0C2"/>
<path d="M24.5341 5C34.133 5.00202 42.0123 12.8895 42 22.4866C41.9877 32.2279 34.1407 40.0069 24.3337 40C14.7452 39.9933 6.99312 32.0969 7 22.3441C7.00631 12.8071 14.9017 4.99798 24.5341 5ZM19.2285 11.142C19.4481 12.2337 19.2353 13.2519 18.9093 14.2534C18.6843 14.9468 18.3729 15.6151 18.1868 16.3186C17.88 17.477 17.533 18.6421 17.4051 19.8263C17.2216 21.5301 17.8857 23.0305 19.0223 24.5231L13.7975 23.4146C13.8064 23.5806 13.7975 23.6436 13.8153 23.6967C14.3105 25.1633 15.1818 26.3986 16.1584 27.5637C16.2617 27.6869 16.4968 27.7499 16.6717 27.7499C21.8807 27.7603 27.09 27.7591 32.2993 27.7522C32.4608 27.7522 32.677 27.7218 32.7753 27.6169C33.8921 26.4336 34.7454 25.0856 35.2799 23.3883L29.7489 24.4803C30.1142 23.7589 30.5296 23.1253 30.7696 22.4288C31.5882 20.0465 31.2488 17.7435 30.0737 15.5711C29.1307 13.828 28.2605 12.0926 28.731 9.99133C27.7352 10.9839 27.3521 12.2458 27.1092 13.5464C26.8707 14.828 26.7293 16.1275 26.5444 17.4282C26.5177 17.3889 26.4842 17.3594 26.4784 17.3256C26.4551 17.1895 26.439 17.0523 26.4303 16.9146C26.3173 14.7852 25.905 12.7337 25.0339 10.7737C24.5218 9.62108 23.9564 8.44124 24.4848 7.06486C24.1275 7.25562 23.8038 7.44436 23.5721 7.71403C22.8811 8.51899 22.5952 9.48581 22.5216 10.5445C22.4585 11.4492 22.3725 12.3579 22.2056 13.2476C22.0307 14.1823 21.7543 15.098 21.1303 15.9573C20.8795 14.1225 20.8514 12.3068 19.2285 11.142ZM32.66 29.3578H16.321V32.2186H32.66V29.3578ZM19.5611 33.6979C19.5479 36.0801 21.9547 37.8548 24.9295 37.7262C27.396 37.6189 29.5777 35.6633 29.3908 33.6979H19.5611Z" fill="#E75225"/>
</svg>
