<svg width="50" height="47" viewBox="0 0 50 47" fill="none" xmlns="http://www.w3.org/2000/svg">
<path d="M0 5.17066C0 2.40923 2.23858 0.170654 5 0.170654H44.3549C47.1163 0.170654 49.3549 2.40923 49.3549 5.17065V41.3413C49.3549 44.1027 47.1163 46.3413 44.3549 46.3413H5C2.23858 46.3413 0 44.1028 0 41.3413V5.17066Z" fill="#7C9EBC"/>
<path d="M24.8093 6.00025C23.4896 6.00663 22.23 6.12109 21.121 6.3213C17.8546 6.90985 17.262 8.14177 17.262 10.414V13.4144H24.9802V14.4145H14.3651C12.1221 14.4145 10.158 15.7896 9.54346 18.4065C8.83456 21.405 8.8033 23.2765 9.54346 26.4076C10.092 28.7385 11.4023 30.3989 13.6456 30.3989H16.2996V26.802C16.2996 24.2033 18.5035 21.9113 21.1213 21.9113H28.8308C30.9769 21.9113 32.6897 20.1087 32.6897 17.9107V10.4143C32.6897 8.28045 30.925 6.67775 28.8308 6.32162C27.5042 6.09654 26.1286 5.9942 24.8093 6.00025ZM20.6352 8.4134C21.4323 8.4134 22.0837 9.08834 22.0837 9.91855C22.0837 10.7452 21.4326 11.4138 20.6352 11.4138C19.8351 11.4138 19.1871 10.7452 19.1871 9.91855C19.1868 9.08834 19.8351 8.4134 20.6352 8.4134Z" fill="#386F9F"/>
<path d="M33.6521 14.4145V17.9107C33.6521 20.6207 31.3991 22.9018 28.8305 22.9018H21.121C19.0093 22.9018 17.262 24.7456 17.262 26.9027V34.3998C17.262 36.533 19.0805 37.7882 21.121 38.4C23.564 39.1323 25.907 39.2649 28.8305 38.4C30.7734 37.8258 32.6894 36.671 32.6894 34.3998V31.399H24.9802V30.3986H36.549C38.792 30.3986 39.6284 28.8029 40.4086 26.4073C41.2144 23.9412 41.1797 21.5695 40.4086 18.4062C39.8541 16.1282 38.7954 14.4142 36.549 14.4142L33.6521 14.4145ZM29.3159 33.3993C30.1164 33.3993 30.7643 34.0679 30.7643 34.8952C30.7643 35.7248 30.116 36.3997 29.3159 36.3997C28.5188 36.3997 27.8677 35.7248 27.8677 34.8952C27.8677 34.0679 28.5188 33.3993 29.3159 33.3993Z" fill="#FFCF46"/>
</svg>
