<svg width="50" height="47" viewBox="0 0 50 47" fill="none" xmlns="http://www.w3.org/2000/svg">
<path d="M0 5.17066C0 2.40923 2.23858 0.170654 5 0.170654H44.3549C47.1163 0.170654 49.3549 2.40923 49.3549 5.17065V41.3413C49.3549 44.1027 47.1163 46.3413 44.3549 46.3413H5C2.23858 46.3413 0 44.1028 0 41.3413V5.17066Z" fill="#FFB1A9"/>
<path d="M40.3531 30.7298C38.5734 31.6594 29.3562 35.4313 27.3906 36.4673C25.425 37.5032 24.3359 37.4766 22.7953 36.7329C21.2547 35.9891 11.4531 32.0579 9.67343 31.2079C8.79687 30.7829 8.34531 30.4376 8.34531 30.0923V26.7188C8.34531 26.7188 21.0953 23.9298 23.1672 23.2126C25.2391 22.4688 25.9297 22.4423 27.6828 23.0798C29.4359 23.7173 39.9281 25.6032 41.6547 26.2407V29.561C41.6547 29.9063 41.2562 30.2782 40.3531 30.7298V30.7298Z" fill="#A41E11"/>
<path d="M40.3531 27.3828C38.5734 28.3125 29.3563 32.0843 27.3906 33.1203C25.425 34.1562 24.3359 34.1297 22.7953 33.3859C21.2547 32.6422 11.4531 28.6843 9.67345 27.8343C7.92032 26.9843 7.8672 26.4 9.59376 25.7359C11.3203 25.0453 21.0688 21.2203 23.1406 20.5031C25.2125 19.7593 25.9031 19.7328 27.6563 20.3703C29.4094 21.0078 38.5734 24.6468 40.3 25.2843C42.0797 25.9218 42.1328 26.4531 40.3531 27.3828Z" fill="#D82C20"/>
<path d="M40.3531 25.2578C38.5734 26.1875 29.3562 29.9593 27.3906 30.9953C25.425 32.0047 24.3359 32.0047 22.7953 31.2609C21.2547 30.5172 11.4531 26.5593 9.67343 25.7093C8.79687 25.2843 8.34531 24.939 8.34531 24.5937V21.2203C8.34531 21.2203 21.0953 18.4312 23.1672 17.714C25.2391 16.9703 25.9297 16.9437 27.6828 17.5812C29.4359 18.2187 39.9281 20.1047 41.6547 20.7422V24.0625C41.6547 24.4078 41.2562 24.7797 40.3531 25.2578V25.2578Z" fill="#A41E11"/>
<path d="M40.3531 21.8845C38.5734 22.8142 29.3563 26.5861 27.3906 27.622C25.425 28.6314 24.3359 28.6314 22.7953 27.8876C21.2547 27.1439 11.4531 23.1861 9.67344 22.3361C7.89375 21.4861 7.86719 20.9017 9.59375 20.2376C11.3203 19.547 21.0688 15.722 23.1406 15.0048C25.2125 14.2611 25.9031 14.2345 27.6563 14.872C29.4094 15.5095 38.5734 19.1486 40.3 19.7861C42.0797 20.4236 42.1328 20.9548 40.3531 21.8845V21.8845Z" fill="#D82C20"/>
<path d="M40.3531 19.5469C38.5734 20.4766 29.3563 24.2485 27.3906 25.2844C25.425 26.2938 24.3359 26.2938 22.7953 25.55C21.2547 24.8328 11.4531 20.875 9.67344 20.025C8.79688 19.6 8.31876 19.2547 8.31876 18.9094V15.536C8.31876 15.536 21.0688 12.7469 23.1406 12.0297C25.2125 11.286 25.9031 11.2594 27.6563 11.8969C29.4094 12.5344 39.9016 14.4203 41.6281 15.0578V18.3781C41.6547 18.7235 41.2563 19.0688 40.3531 19.5469Z" fill="#A41E11"/>
<path d="M40.3531 16.1734C38.5734 17.103 29.3563 20.8749 27.3906 21.9109C25.425 22.9202 24.3359 22.9202 22.7953 22.1765C21.2547 21.4327 11.4531 17.5015 9.67344 16.6515C7.89375 15.8015 7.86719 15.2171 9.59375 14.553C11.3203 13.8624 21.0688 10.0374 23.1406 9.32023C25.2125 8.57648 25.9031 8.54992 27.6563 9.18742C29.4094 9.82492 38.5734 13.464 40.3 14.1015C42.0797 14.739 42.1328 15.2702 40.3531 16.1734V16.1734Z" fill="#D82C20"/>
<path d="M29.3563 12.9328L26.4875 13.2515L25.8234 14.7921L24.7875 13.0656L21.4672 12.7734L23.9375 11.8703L23.1938 10.489L25.5313 11.3921L27.7094 10.675L27.125 12.1093L29.3563 12.9328ZM25.6641 20.4765L20.2719 18.2453L28.0016 17.0765L25.6641 20.4765Z" fill="white"/>
<path d="M18.2 16.9968C20.4739 16.9968 22.3172 16.2833 22.3172 15.4031C22.3172 14.5229 20.4739 13.8093 18.2 13.8093C15.9262 13.8093 14.0828 14.5229 14.0828 15.4031C14.0828 16.2833 15.9262 16.9968 18.2 16.9968Z" fill="white"/>
<path d="M32.7828 13.3579L37.3516 15.1642L32.7828 16.9704V13.3579Z" fill="#7A0C00"/>
<path d="M27.7359 15.3767L32.7828 13.3579V16.9704L32.2781 17.1829L27.7359 15.3767Z" fill="#AD2115"/>
</svg>
