<svg width="50" height="47" viewBox="0 0 50 47" fill="none" xmlns="http://www.w3.org/2000/svg">
<path d="M0 5C0 2.23858 2.23858 0 5 0H44.3549C47.1163 0 49.3549 2.23858 49.3549 5V41.1707C49.3549 43.9321 47.1163 46.1707 44.3549 46.1707H5C2.23858 46.1707 0 43.9321 0 41.1707V5Z" fill="#77E3D1"/>
<path d="M24.5011 12.0005C19.8343 12.0005 16.9187 14.3329 15.7511 18.9997C17.5006 16.667 19.5429 15.7922 21.8756 16.3755C23.2075 16.7074 24.1593 17.6732 25.2134 18.7435C26.929 20.4844 28.9147 22.4999 33.2511 22.4999C37.9176 22.4999 40.8335 20.1672 42.0011 15.4994C40.2514 17.8335 38.2093 18.7082 35.8764 18.1249C34.5447 17.7927 33.594 16.8272 32.5385 15.757C30.8241 14.016 28.8389 12.0005 24.5011 12.0005ZM15.7511 22.4999C11.0846 22.4999 8.16868 24.8326 7.0011 29.5005C8.75055 27.1664 10.7926 26.2917 13.1256 26.8749C14.4575 27.2072 15.4093 28.1727 16.4634 29.2429C18.179 30.9839 20.1647 32.9994 24.5011 32.9994C29.1676 32.9994 32.0835 30.667 33.2511 26.0002C31.5014 28.3329 29.4593 29.2076 27.1264 28.6244C25.7947 28.2924 24.844 27.3267 23.7885 26.2564C22.0741 24.5155 20.0889 22.4999 15.7511 22.4999Z" fill="url(#paint0_linear_53_396)"/>
<defs>
<linearGradient id="paint0_linear_53_396" x1="6.06463" y1="18.6576" x2="36.2724" y2="36.1125" gradientUnits="userSpaceOnUse">
<stop stop-color="#2298BD"/>
<stop offset="1" stop-color="#0ED7B5"/>
</linearGradient>
</defs>
</svg>
