<svg width="50" height="47" viewBox="0 0 50 47" fill="none" xmlns="http://www.w3.org/2000/svg">
<path d="M0 5C0 2.23858 2.23858 0 5 0H44.3549C47.1163 0 49.3549 2.23858 49.3549 5V41.1707C49.3549 43.9321 47.1163 46.1707 44.3549 46.1707H5C2.23858 46.1707 0 43.9321 0 41.1707V5Z" fill="#81BFE9"/>
<path d="M15.3133 19.0156H38.6735V36.282H15.3133V19.0156Z" fill="white" fill-opacity="0.6"/>
<path d="M10.3516 22.979V37.6274H39.6484V8.33057H10.3516V22.979ZM33.9602 21.8071C34.6618 21.97 35.2996 22.337 35.793 22.8618C36.0646 23.1446 36.3007 23.4594 36.4961 23.7993C36.4961 23.8368 35.2305 24.6923 34.4594 25.1704C34.4312 25.1892 34.3188 25.0673 34.1945 24.8821C34.0538 24.6392 33.8538 24.436 33.6132 24.2913C33.3726 24.1466 33.0993 24.0652 32.8188 24.0548C31.9305 23.9938 31.3586 24.4603 31.3633 25.2267C31.3559 25.4175 31.3996 25.6068 31.4898 25.7751C31.6844 26.1806 32.0477 26.422 33.1867 26.9142C35.2844 27.8165 36.182 28.4118 36.7398 29.2579C37.3633 30.1954 37.5016 31.7095 37.0797 32.8298C36.6109 34.0485 35.4625 34.8759 33.8383 35.1501C33.0964 35.2351 32.3469 35.2272 31.607 35.1267C30.473 34.9397 29.4285 34.3953 28.6258 33.5728C28.3563 33.2751 27.8313 32.4993 27.8641 32.4431C27.9496 32.3796 28.0397 32.3224 28.1336 32.272L29.2188 31.672L30.0602 31.1845L30.2359 31.4446C30.5326 31.869 30.9101 32.2306 31.3469 32.5087C32.2844 33.0009 33.5641 32.9329 34.1969 32.3634C34.4093 32.1547 34.5419 31.8781 34.5714 31.5817C34.601 31.2854 34.5257 30.988 34.3586 30.7415C34.1242 30.4157 33.6555 30.1415 32.3453 29.5696C30.8336 28.9181 30.182 28.5149 29.5867 27.8728C29.2151 27.449 28.9407 26.949 28.7828 26.4079C28.665 25.7897 28.6476 25.1566 28.7312 24.5329C29.043 23.0728 30.1375 22.0532 31.7359 21.7509C32.4762 21.6593 33.226 21.6798 33.9602 21.8118V21.8071ZM27.0836 23.0353V24.2353H23.2797V35.0704H20.582V24.2329H16.7687V23.061C16.7569 22.6569 16.7663 22.2524 16.7969 21.8493C16.8156 21.8282 19.1406 21.8282 21.9531 21.8282H27.0695L27.0836 23.0353Z" fill="#007ACC"/>
</svg>
