<svg width="27" height="27" viewBox="0 0 27 27" fill="none" xmlns="http://www.w3.org/2000/svg">
<path d="M10.9858 14.8278C11.5257 15.5393 12.2144 16.1279 13.0054 16.5539C13.7964 16.9799 14.671 17.2332 15.57 17.2966C16.469 17.3601 17.3713 17.2322 18.2158 16.9217C19.0603 16.6112 19.8271 16.1253 20.4643 15.497L24.2356 11.7796C25.3805 10.611 26.0141 9.046 25.9998 7.42151C25.9854 5.79703 25.3244 4.24307 24.159 3.09434C22.9936 1.94561 21.4172 1.29401 19.7691 1.2799C18.1211 1.26578 16.5334 1.89027 15.3479 3.01887L13.1857 5.13779M16.0142 12.3496C15.4743 11.6381 14.7856 11.0495 13.9946 10.6235C13.2036 10.1976 12.329 9.94426 11.43 9.8808C10.531 9.81733 9.62867 9.94519 8.7842 10.2557C7.93974 10.5662 7.1729 11.0521 6.53569 11.6804L2.76441 15.3979C1.61946 16.5664 0.985917 18.1314 1.00024 19.7559C1.01456 21.3804 1.6756 22.9344 2.84097 24.0831C4.00635 25.2318 5.58283 25.8834 7.23086 25.8975C8.87889 25.9116 10.4666 25.2872 11.6521 24.1586L13.8017 22.0396" stroke="#7F7F7F" stroke-width="2" stroke-linecap="round" stroke-linejoin="round"/>
</svg>
