<svg width="27" height="26" viewBox="0 0 27 26" fill="none" xmlns="http://www.w3.org/2000/svg">
<path d="M9.60159 21.0274C10.003 20.9251 10.2454 20.5167 10.143 20.1154C10.0406 19.714 9.6323 19.4716 9.23093 19.574L9.60159 21.0274ZM1.15594 15.8076L0.422327 15.6517L0.110453 17.1189L0.844063 17.2749L1.15594 15.8076ZM18.6165 25V25.75H20.1165V25H18.6165ZM18.5373 15.6014L18.4723 14.8542C18.1672 14.8808 17.9089 15.0902 17.8198 15.3832C17.7306 15.6762 17.8286 15.9939 18.0673 16.1858L18.5373 15.6014ZM26 8.58937L26.75 8.58937L26.75 8.58638L26 8.58937ZM24.0657 4.81818L23.3895 4.4938C23.2394 4.80669 23.3236 5.18168 23.593 5.40042L24.0657 4.81818ZM23.9496 1.02702L24.6063 0.664773C24.5035 0.478278 24.3262 0.344315 24.1187 0.296315L23.9496 1.02702ZM18.9057 2.51552L18.7508 3.24936C18.9212 3.28533 19.0989 3.26085 19.2532 3.18013L18.9057 2.51552ZM9.87706 2.51552L9.52962 3.18019C9.68394 3.26086 9.86154 3.28532 10.0319 3.24936L9.87706 2.51552ZM4.83311 1.02702L4.66393 0.29635C4.45649 0.344382 4.27924 0.478326 4.17639 0.664773L4.83311 1.02702ZM4.71702 4.81818L5.18972 5.40047C5.45916 5.18173 5.54335 4.80671 5.39325 4.4938L4.71702 4.81818ZM2.78273 8.61991L3.53274 8.61991L3.53273 8.61754L2.78273 8.61991ZM10.2454 15.6014L10.7164 16.1851C10.9535 15.9937 11.0513 15.678 10.9639 15.3861C10.8764 15.0942 10.6211 14.8843 10.3178 14.8549L10.2454 15.6014ZM9.41626 18.421H10.1663C10.1663 18.3984 10.1652 18.3758 10.1632 18.3532L9.41626 18.421ZM8.66626 25V25.75H10.1663V25H8.66626ZM9.23093 19.574C7.75986 19.9491 6.74795 19.9264 6.0208 19.7321C5.30432 19.5407 4.79464 19.1643 4.35299 18.6981C4.12756 18.4602 3.92244 18.2017 3.71235 17.9263C3.51009 17.6613 3.2891 17.3611 3.06469 17.0932C2.61104 16.5515 2.02657 15.9927 1.15594 15.8076L0.844063 17.2749C1.217 17.3541 1.52894 17.5957 1.91474 18.0563C2.11006 18.2895 2.29455 18.541 2.51982 18.8362C2.73725 19.1212 2.98169 19.4317 3.26414 19.7298C3.83824 20.3357 4.57758 20.8991 5.63359 21.1813C6.67893 21.4606 7.96299 21.4453 9.60159 21.0274L9.23093 19.574ZM20.1165 18.3035C20.1165 17.7558 20.131 17.1527 20.0098 16.6104C19.8762 16.0128 19.5819 15.479 19.0073 15.017L18.0673 16.1858C18.362 16.4228 18.4822 16.6527 18.5459 16.9376C18.622 17.2779 18.6165 17.6764 18.6165 18.3035H20.1165ZM18.6023 16.3486C20.6496 16.1704 22.6996 15.7791 24.2382 14.6218C25.8326 13.4225 26.75 11.5055 26.75 8.58937H25.25C25.25 11.1643 24.461 12.5772 23.3365 13.423C22.1563 14.3108 20.475 14.6799 18.4723 14.8542L18.6023 16.3486ZM26.75 8.58638C26.7433 6.91759 25.9222 5.35946 24.5385 4.23594L23.593 5.40042C24.6762 6.27995 25.2454 7.43248 25.25 8.59236L26.75 8.58638ZM24.7419 5.14256C25.0831 4.43132 25.2498 3.66507 25.2261 2.89024L23.7268 2.93615C23.7429 3.46277 23.6305 3.99148 23.3895 4.4938L24.7419 5.14256ZM25.2261 2.89024C25.2024 2.11552 24.9891 1.35868 24.6063 0.664773L23.2929 1.38927C23.5658 1.88407 23.7107 2.4094 23.7268 2.93615L25.2261 2.89024ZM23.9496 1.02702C24.1187 0.296315 24.1181 0.296177 24.1175 0.296039C24.1172 0.295991 24.1166 0.295851 24.1162 0.295756C24.1154 0.295566 24.1145 0.295372 24.1136 0.295174C24.1119 0.294778 24.11 0.294367 24.1081 0.293942C24.1042 0.293091 24.0999 0.292185 24.0952 0.291232C24.0859 0.289326 24.075 0.287236 24.0626 0.285039C24.0379 0.280645 24.007 0.27583 23.9699 0.271214C23.8957 0.26198 23.7969 0.253574 23.6728 0.25089C23.4242 0.245516 23.0755 0.263089 22.6199 0.34189C21.7092 0.499419 20.3744 0.901103 18.5581 1.85091L19.2532 3.18013C20.9573 2.28899 22.1444 1.94642 22.8756 1.81994C23.241 1.75673 23.4932 1.74736 23.6403 1.75054C23.714 1.75213 23.7618 1.75688 23.7846 1.75973C23.7961 1.76115 23.8014 1.76211 23.8007 1.76198C23.8003 1.76192 23.7984 1.76158 23.7951 1.7609C23.7934 1.76056 23.7914 1.76013 23.7889 1.7596C23.7877 1.75934 23.7864 1.75905 23.785 1.75874C23.7843 1.75858 23.7836 1.75842 23.7829 1.75825C23.7825 1.75817 23.7819 1.75804 23.7818 1.75799C23.7812 1.75786 23.7806 1.75772 23.9496 1.02702ZM19.0605 1.78169C15.9983 1.13546 12.7844 1.13546 9.7222 1.78169L10.0319 3.24936C12.8899 2.64623 15.8928 2.64623 18.7508 3.24936L19.0605 1.78169ZM10.2245 1.85086C8.40759 0.901094 7.07276 0.499423 6.16228 0.341894C5.70683 0.263093 5.35823 0.245515 5.10976 0.25089C4.98561 0.253575 4.88686 0.261983 4.81268 0.271223C4.77561 0.275841 4.74474 0.280659 4.71996 0.285058C4.70758 0.287257 4.69672 0.28935 4.68738 0.291259C4.68272 0.292213 4.67843 0.293121 4.67452 0.293973C4.67256 0.294399 4.6707 0.29481 4.66894 0.295207C4.66806 0.295405 4.6672 0.2956 4.66636 0.29579C4.66595 0.295886 4.66534 0.296025 4.66513 0.296073C4.66453 0.296212 4.66393 0.29635 4.83311 1.02702C5.00229 1.75769 5.0017 1.75782 5.00112 1.75796C5.00094 1.758 5.00036 1.75813 4.99999 1.75822C4.99925 1.75839 4.99853 1.75855 4.99784 1.75871C4.99644 1.75902 4.99514 1.75931 4.99393 1.75957C4.99151 1.7601 4.98946 1.76053 4.98778 1.76087C4.98442 1.76156 4.98254 1.7619 4.98216 1.76196C4.9814 1.7621 4.98667 1.76114 4.9981 1.75972C5.02092 1.75688 5.06861 1.75213 5.1422 1.75054C5.28919 1.74736 5.54124 1.75673 5.90656 1.81993C6.63761 1.94642 7.82476 2.289 9.52962 3.18019L10.2245 1.85086ZM4.17639 0.664773C3.79363 1.35868 3.58034 2.11552 3.55662 2.89024L5.05592 2.93615C5.07205 2.4094 5.21689 1.88407 5.48983 1.38927L4.17639 0.664773ZM3.55662 2.89024C3.5329 3.66507 3.69962 4.43133 4.0408 5.14256L5.39325 4.4938C5.15228 3.99148 5.03979 3.46277 5.05592 2.93615L3.55662 2.89024ZM4.24432 4.2359C3.55431 4.79605 2.99701 5.46951 2.61367 6.22294L3.95057 6.90315C4.23106 6.35187 4.64898 5.83944 5.18972 5.40047L4.24432 4.2359ZM2.61367 6.22294C2.22987 6.97727 2.03012 7.79322 2.03274 8.62229L3.53273 8.61754C3.53089 8.03553 3.67054 7.45354 3.95057 6.90315L2.61367 6.22294ZM2.03273 8.61991C2.03273 11.5188 2.95202 13.4182 4.54667 14.6087C6.08304 15.7557 8.13068 16.15 10.1731 16.3479L10.3178 14.8549C8.31025 14.6604 6.62653 14.2895 5.44404 13.4067C4.31982 12.5674 3.53273 11.1722 3.53273 8.61991H2.03273ZM9.77448 15.0177C8.58956 15.9738 8.58127 17.518 8.66933 18.4887L10.1632 18.3532C10.0771 17.4043 10.1862 16.6129 10.7164 16.1851L9.77448 15.0177ZM8.66626 18.421V25H10.1663V18.421H8.66626ZM20.1165 25V18.3035H18.6165V25H20.1165Z" fill="#A7A7A7"/>
</svg>
