<svg width="27" height="27" viewBox="0 0 27 27" fill="none" xmlns="http://www.w3.org/2000/svg">
<path d="M16.0971 5.96031C17.3138 6.19663 18.432 6.789 19.3085 7.66162C20.185 8.53424 20.7801 9.64739 21.0174 10.8586M16.0971 1C18.6249 1.27956 20.982 2.40647 22.7816 4.19569C24.5811 5.98492 25.716 8.33011 26 10.8462M11.335 15.7111C9.8383 14.2211 8.65645 12.5363 7.78948 10.7386C7.71491 10.584 7.67762 10.5067 7.64898 10.4088C7.54718 10.0612 7.6203 9.63428 7.83207 9.33985C7.89167 9.257 7.96286 9.18612 8.10525 9.04436C8.54074 8.61082 8.75848 8.39405 8.90084 8.17608C9.4377 7.35404 9.4377 6.29429 8.90084 5.47226C8.75848 5.25428 8.54074 5.03751 8.10525 4.60397L7.86252 4.36232C7.20053 3.70329 6.86954 3.37377 6.51405 3.19477C5.80708 2.83878 4.97217 2.83878 4.26519 3.19477C3.9097 3.37377 3.57871 3.70329 2.91672 4.36232L2.72037 4.5578C2.06065 5.21457 1.73079 5.54296 1.47886 5.98942C1.19931 6.48484 0.998312 7.2543 1.00001 7.82253C1.00154 8.33462 1.10132 8.6846 1.30088 9.38455C2.37334 13.1462 4.39686 16.6958 7.37142 19.657C10.346 22.6183 13.9115 24.6328 17.69 25.7005C18.3931 25.8991 18.7446 25.9985 19.259 26C19.8298 26.0017 20.6027 25.8016 21.1004 25.5233C21.5488 25.2725 21.8787 24.9441 22.5384 24.2873L22.7348 24.0918C23.3968 23.4328 23.7277 23.1033 23.9075 22.7494C24.2651 22.0456 24.2651 21.2144 23.9075 20.5106C23.7277 20.1567 23.3968 19.8272 22.7348 19.1681L22.492 18.9265C22.0565 18.4929 21.8388 18.2762 21.6198 18.1345C20.7941 17.6 19.7296 17.6 18.9039 18.1345C18.6849 18.2762 18.4672 18.4929 18.0317 18.9265C17.8893 19.0682 17.8181 19.1391 17.7349 19.1984C17.4391 19.4093 17.0103 19.4821 16.6611 19.3807C16.5628 19.3522 16.4852 19.3151 16.3299 19.2408C14.5242 18.3778 12.8318 17.2012 11.335 15.7111Z" stroke="#A7A7A7" stroke-width="1.5" stroke-linecap="round" stroke-linejoin="round"/>
</svg>
